<svg width="498" height="366" viewBox="0 0 498 366" fill="none" xmlns="http://www.w3.org/2000/svg">
<path d="M354.25 272.539L351.261 283.137H363.519C361.768 278.95 361.321 274.974 362.838 271.316L354.25 272.539Z" fill="#FFB8B8"/>
<path d="M497.627 365.255C497.627 365.421 497.622 365.592 497.612 365.758H0.251414C0.241345 365.592 0.236328 365.421 0.236328 365.255C0.236328 340.039 111.581 319.601 248.931 319.601C386.282 319.601 497.627 340.039 497.627 365.255Z" fill="#3F3D56"/>
<path d="M416.235 342.144C431.496 342.144 443.868 329.773 443.868 314.511C443.868 299.25 431.496 286.879 416.235 286.879C400.974 286.879 388.603 299.25 388.603 314.511C388.603 329.773 400.974 342.144 416.235 342.144Z" fill="#D0CDE1"/>
<path d="M417.743 301.951C428.009 301.951 436.332 298.577 436.332 294.415C436.332 290.253 428.009 286.879 417.743 286.879C407.476 286.879 399.153 290.253 399.153 294.415C399.153 298.577 407.476 301.951 417.743 301.951Z" fill="#6C63FF"/>
<path d="M418.748 294.917C428.459 294.917 436.332 287.044 436.332 277.333C436.332 267.621 428.459 259.748 418.748 259.748C409.036 259.748 401.163 267.621 401.163 277.333C401.163 287.044 409.036 294.917 418.748 294.917Z" fill="#D0CDE1"/>
<path d="M413.399 273.994C414.884 273.994 416.089 272.789 416.089 271.304C416.089 269.818 414.884 268.614 413.399 268.614C411.913 268.614 410.709 269.818 410.709 271.304C410.709 272.789 411.913 273.994 413.399 273.994Z" fill="#575A89"/>
<path d="M422.589 273.994C424.074 273.994 425.279 272.789 425.279 271.304C425.279 269.818 424.074 268.614 422.589 268.614C421.103 268.614 419.899 269.818 419.899 271.304C419.899 272.789 421.103 273.994 422.589 273.994Z" fill="#575A89"/>
<path d="M417.24 274.821L416.506 283.63C416.499 283.711 416.523 283.792 416.572 283.856C416.622 283.921 416.693 283.965 416.773 283.98C416.853 283.995 416.936 283.979 417.005 283.937C417.074 283.894 417.125 283.827 417.148 283.749L419.752 274.821L417.24 274.821Z" fill="#FF6584"/>
<path d="M401.42 350.76L398.223 353.957L380.564 333.101L380.992 330.331L401.42 350.76Z" fill="#575A89"/>
<path d="M387.598 340.637V342.647L371.521 341.642L370.013 340.637H387.598Z" fill="#575A89"/>
<path d="M400.158 311.497C402.655 311.497 404.68 309.248 404.68 306.473C404.68 303.698 402.655 301.449 400.158 301.449C397.661 301.449 395.636 303.698 395.636 306.473C395.636 309.248 397.661 311.497 400.158 311.497Z" fill="#D0CDE1"/>
<path d="M438.084 306.045L441.281 309.242L458.94 288.386L458.513 285.616L438.084 306.045Z" fill="#575A89"/>
<path d="M447.385 298.434V300.444L463.462 299.439L464.969 298.434H447.385Z" fill="#575A89"/>
<path d="M439.346 311.497C441.844 311.497 443.868 309.248 443.868 306.473C443.868 303.698 441.844 301.449 439.346 301.449C436.849 301.449 434.825 303.698 434.825 306.473C434.825 309.248 436.849 311.497 439.346 311.497Z" fill="#D0CDE1"/>
<path d="M417.743 310.492C418.852 310.492 419.752 309.592 419.752 308.483C419.752 307.373 418.852 306.473 417.743 306.473C416.633 306.473 415.733 307.373 415.733 308.483C415.733 309.592 416.633 310.492 417.743 310.492Z" fill="#575A89"/>
<path d="M417.743 317.023C418.852 317.023 419.752 316.124 419.752 315.014C419.752 313.904 418.852 313.004 417.743 313.004C416.633 313.004 415.733 313.904 415.733 315.014C415.733 316.124 416.633 317.023 417.743 317.023Z" fill="#575A89"/>
<path d="M417.743 323.555C418.852 323.555 419.752 322.655 419.752 321.545C419.752 320.435 418.852 319.536 417.743 319.536C416.633 319.536 415.733 320.435 415.733 321.545C415.733 322.655 416.633 323.555 417.743 323.555Z" fill="#575A89"/>
<path d="M330.886 326.565C330.991 324.337 330.387 322.134 329.16 320.272C327.934 318.409 326.149 316.983 324.061 316.199C321.973 315.416 319.691 315.314 317.542 315.909C315.393 316.504 313.488 317.765 312.1 319.512C310.98 317.802 309.387 316.454 307.516 315.632C308.119 313.347 307.938 310.927 307.002 308.757C306.065 306.588 304.428 304.796 302.352 303.668C300.276 302.541 297.882 302.142 295.552 302.537C293.223 302.932 291.094 304.098 289.506 305.847C287.015 303.378 284.025 301.471 280.737 300.253C281.143 297.687 280.587 295.061 279.175 292.879C277.764 290.698 275.597 289.114 273.09 288.432C270.583 287.75 267.912 288.017 265.59 289.183C263.268 290.348 261.458 292.33 260.507 294.748C258.648 293.455 256.421 292.795 254.156 292.867C251.892 292.939 249.711 293.738 247.937 295.147C246.163 296.556 244.89 298.499 244.308 300.689C243.725 302.878 243.864 305.196 244.703 307.301C243.459 307.759 242.313 308.447 241.324 309.33C238.91 308.441 236.255 308.465 233.859 309.397C231.462 310.329 229.488 312.106 228.31 314.392C227.355 313.332 226.195 312.477 224.901 311.878C224.932 311.62 224.964 311.362 224.976 311.098C225.046 309.627 224.806 308.157 224.273 306.784C223.74 305.411 222.926 304.164 221.882 303.125C220.838 302.085 219.589 301.276 218.213 300.749C216.838 300.222 215.367 299.989 213.896 300.064C212.425 300.14 210.986 300.523 209.672 301.188C208.358 301.853 207.197 302.786 206.266 303.927C205.334 305.068 204.651 306.391 204.262 307.812C203.873 309.233 203.785 310.719 204.005 312.176C201.615 312.826 199.535 314.305 198.135 316.348C196.735 318.39 196.106 320.864 196.361 323.327C184.521 323.675 173.102 324.229 162.19 324.98C160.846 320.275 158.132 316.078 154.393 312.924C150.654 309.769 146.059 307.799 141.196 307.267C136.333 306.734 131.422 307.662 127.088 309.932C122.755 312.203 119.196 315.713 116.866 320.014C115.039 318.631 112.811 317.881 110.519 317.878C108.228 317.874 105.997 318.617 104.165 319.993C102.334 321.37 101 323.306 100.367 325.509C99.7333 327.711 99.8345 330.06 100.655 332.199C100.177 332.285 99.7017 332.371 99.2281 332.458C99.245 332.283 99.2708 332.111 99.2791 331.933C99.3449 330.548 99.1371 329.164 98.6674 327.859C98.1978 326.554 97.4756 325.355 96.5422 324.33C95.6087 323.304 94.4823 322.473 93.2274 321.883C91.9724 321.294 90.6135 320.957 89.2284 320.893C87.8432 320.829 86.4591 321.038 85.155 321.51C83.8509 321.981 82.6524 322.704 81.6282 323.639C80.604 324.574 79.774 325.701 79.1858 326.957C78.5977 328.213 78.2627 329.572 78.2003 330.957C78.1952 331.067 78.2033 331.173 78.2016 331.282C77.2372 330.916 76.1996 330.783 75.1741 330.896C74.1486 331.008 73.1644 331.362 72.3021 331.929C71.4399 332.495 70.7243 333.258 70.2139 334.154C69.7036 335.051 69.4131 336.056 69.3662 337.086C69.3279 337.914 330.867 326.975 330.886 326.565Z" fill="#D0CDE1"/>
<path d="M3.73828 169.205C3.75269 169.16 3.7679 169.113 3.78238 169.067C3.77612 169.087 3.76827 169.107 3.76214 169.127L3.73828 169.205Z" fill="#2F2E41"/>
<path d="M244.022 306.174L281.235 250.835L244.098 312.128L244.175 318.355C241.459 318.375 238.769 318.33 236.105 318.219L237.95 238.174L237.9 237.557L237.968 237.438L238.144 229.874L197.392 170.706L238.096 224.213L238.241 225.812L239.635 165.335L204.436 103.991L239.735 154.711L239.367 29.4185L239.367 29.0015L239.379 29.4116L241.716 128.159L273.796 88.0476L241.821 136.666L242.521 190.761L272.041 137.966L242.63 198.714L243.019 228.793L285.95 155.251L243.15 239.287L244.022 306.174Z" fill="#3F3D56"/>
<path d="M235.868 152.734C238.088 152.734 239.888 150.934 239.888 148.715C239.888 146.495 238.088 144.695 235.868 144.695C233.649 144.695 231.849 146.495 231.849 148.715C231.849 150.934 233.649 152.734 235.868 152.734Z" fill="#D0CDE1"/>
<path d="M261.994 214.029C264.214 214.029 266.013 212.229 266.013 210.009C266.013 207.789 264.214 205.99 261.994 205.99C259.774 205.99 257.975 207.789 257.975 210.009C257.975 212.229 259.774 214.029 261.994 214.029Z" fill="#D0CDE1"/>
<path d="M227.83 227.594C230.05 227.594 231.849 225.794 231.849 223.574C231.849 221.355 230.05 219.555 227.83 219.555C225.61 219.555 223.811 221.355 223.811 223.574C223.811 225.794 225.61 227.594 227.83 227.594Z" fill="#D0CDE1"/>
<path d="M214.767 164.792C216.987 164.792 218.787 162.993 218.787 160.773C218.787 158.553 216.987 156.753 214.767 156.753C212.548 156.753 210.748 158.553 210.748 160.773C210.748 162.993 212.548 164.792 214.767 164.792Z" fill="#D0CDE1"/>
<path d="M241.897 152.734C241.897 152.021 241.708 151.322 241.348 150.707C240.988 150.092 240.471 149.583 239.85 149.234C239.945 148.511 239.841 147.776 239.549 147.107C239.258 146.439 238.79 145.862 238.196 145.44C237.601 145.017 236.903 144.764 236.176 144.708C235.449 144.652 234.721 144.794 234.068 145.121C233.416 145.447 232.865 145.945 232.475 146.561C232.084 147.176 231.868 147.887 231.85 148.616C231.833 149.345 232.014 150.065 232.374 150.699C232.734 151.333 233.261 151.857 233.896 152.215C233.824 152.735 233.857 153.264 233.992 153.772C234.128 154.28 234.364 154.755 234.686 155.17C234.406 155.82 234.303 156.533 234.386 157.236C234.47 157.939 234.738 158.607 235.162 159.173C235.587 159.74 236.154 160.184 236.806 160.461C237.457 160.738 238.17 160.838 238.873 160.751C239.575 160.664 240.243 160.393 240.807 159.966C241.371 159.538 241.813 158.969 242.087 158.316C242.361 157.664 242.457 156.95 242.367 156.248C242.277 155.546 242.003 154.88 241.572 154.318C241.787 153.817 241.898 153.278 241.897 152.734Z" fill="#D0CDE1"/>
<path d="M249.434 112.038C248.368 112.038 247.345 112.462 246.592 113.216C245.838 113.969 245.414 114.992 245.414 116.058C244.52 116.058 243.652 116.357 242.947 116.906C242.242 117.456 241.741 118.225 241.522 119.091C240.788 119.159 240.088 119.428 239.497 119.867C238.905 120.307 238.446 120.9 238.17 121.583C237.893 122.266 237.809 123.011 237.928 123.738C238.046 124.465 238.362 125.146 238.841 125.705C239.32 126.265 239.944 126.682 240.644 126.911C241.344 127.141 242.093 127.173 242.811 127.005C243.528 126.837 244.185 126.475 244.71 125.959C245.236 125.442 245.609 124.791 245.79 124.077C246.786 123.984 247.712 123.522 248.386 122.782C249.06 122.042 249.433 121.078 249.434 120.077C250.5 120.077 251.522 119.653 252.276 118.9C253.029 118.146 253.453 117.124 253.453 116.058C253.453 114.992 253.029 113.969 252.276 113.216C251.522 112.462 250.5 112.038 249.434 112.038V112.038Z" fill="#D0CDE1"/>
<path d="M164.526 179.864C166.191 179.864 167.54 178.515 167.54 176.85C167.54 175.185 166.191 173.835 164.526 173.835C162.861 173.835 161.511 175.185 161.511 176.85C161.511 178.515 162.861 179.864 164.526 179.864Z" fill="#D0CDE1"/>
<path d="M197.182 216.038C198.847 216.038 200.197 214.689 200.197 213.024C200.197 211.359 198.847 210.009 197.182 210.009C195.518 210.009 194.168 211.359 194.168 213.024C194.168 214.689 195.518 216.038 197.182 216.038Z" fill="#D0CDE1"/>
<path d="M343.887 77.8743C346.107 77.8743 347.907 76.0748 347.907 73.855C347.907 71.6352 346.107 69.8357 343.887 69.8357C341.668 69.8357 339.868 71.6352 339.868 73.855C339.868 76.0748 341.668 77.8743 343.887 77.8743Z" fill="#D0CDE1"/>
<path d="M374.535 30.6471C376.2 30.6471 377.549 29.2975 377.549 27.6327C377.549 25.9678 376.2 24.6182 374.535 24.6182C372.87 24.6182 371.521 25.9678 371.521 27.6327C371.521 29.2975 372.87 30.6471 374.535 30.6471Z" fill="#D0CDE1"/>
<path d="M407.192 66.821C408.857 66.821 410.206 65.4713 410.206 63.8065C410.206 62.1416 408.857 60.792 407.192 60.792C405.527 60.792 404.177 62.1416 404.177 63.8065C404.177 65.4713 405.527 66.821 407.192 66.821Z" fill="#D0CDE1"/>
<path d="M447.887 150.724C450.107 150.724 451.907 148.925 451.907 146.705C451.907 144.485 450.107 142.686 447.887 142.686C445.668 142.686 443.868 144.485 443.868 146.705C443.868 148.925 445.668 150.724 447.887 150.724Z" fill="#D0CDE1"/>
<path d="M394.029 109.074C395.694 109.074 397.043 107.725 397.043 106.06C397.043 104.395 395.694 103.045 394.029 103.045C392.364 103.045 391.014 104.395 391.014 106.06C391.014 107.725 392.364 109.074 394.029 109.074Z" fill="#D0CDE1"/>
<path d="M309.221 217.043C311.441 217.043 313.24 215.244 313.24 213.024C313.24 210.804 311.441 209.004 309.221 209.004C307.001 209.004 305.202 210.804 305.202 213.024C305.202 215.244 307.001 217.043 309.221 217.043Z" fill="#D0CDE1"/>
<path d="M356.951 220.56C358.615 220.56 359.965 219.21 359.965 217.545C359.965 215.881 358.615 214.531 356.951 214.531C355.286 214.531 353.936 215.881 353.936 217.545C353.936 219.21 355.286 220.56 356.951 220.56Z" fill="#D0CDE1"/>
<path d="M61.0281 89.4297C63.2479 89.4297 65.0474 87.6302 65.0474 85.4104C65.0474 83.1906 63.2479 81.3911 61.0281 81.3911C58.8083 81.3911 57.0088 83.1906 57.0088 85.4104C57.0088 87.6302 58.8083 89.4297 61.0281 89.4297Z" fill="#D0CDE1"/>
<path d="M57.0091 57.2753C58.674 57.2753 60.0236 55.9257 60.0236 54.2608C60.0236 52.596 58.674 51.2463 57.0091 51.2463C55.3443 51.2463 53.9946 52.596 53.9946 54.2608C53.9946 55.9257 55.3443 57.2753 57.0091 57.2753Z" fill="#D0CDE1"/>
<path d="M53.9945 277.333C55.6593 277.333 57.009 275.983 57.009 274.318C57.009 272.653 55.6593 271.304 53.9945 271.304C52.3296 271.304 50.98 272.653 50.98 274.318C50.98 275.983 52.3296 277.333 53.9945 277.333Z" fill="#D0CDE1"/>
<path d="M171.559 286.879C173.224 286.879 174.574 285.529 174.574 283.864C174.574 282.199 173.224 280.85 171.559 280.85C169.895 280.85 168.545 282.199 168.545 283.864C168.545 285.529 169.895 286.879 171.559 286.879Z" fill="#D0CDE1"/>
<path d="M414.225 229.603C416.445 229.603 418.245 227.804 418.245 225.584C418.245 223.364 416.445 221.565 414.225 221.565C412.006 221.565 410.206 223.364 410.206 225.584C410.206 227.804 412.006 229.603 414.225 229.603Z" fill="#D0CDE1"/>
<path d="M472.003 254.724C473.668 254.724 475.018 253.374 475.018 251.71C475.018 250.045 473.668 248.695 472.003 248.695C470.338 248.695 468.989 250.045 468.989 251.71C468.989 253.374 470.338 254.724 472.003 254.724Z" fill="#D0CDE1"/>
<path d="M139.907 122.087C141.572 122.087 142.922 120.737 142.922 119.072C142.922 117.407 141.572 116.058 139.907 116.058C138.242 116.058 136.893 117.407 136.893 119.072C136.893 120.737 138.242 122.087 139.907 122.087Z" fill="#D0CDE1"/>
<path d="M305.201 273.816C307.421 273.816 309.221 272.016 309.221 269.796C309.221 267.577 307.421 265.777 305.201 265.777C302.982 265.777 301.182 267.577 301.182 269.796C301.182 272.016 302.982 273.816 305.201 273.816Z" fill="#D0CDE1"/>
<path d="M164.526 6.02898C166.191 6.02898 167.54 4.67934 167.54 3.01449C167.54 1.34963 166.191 0 164.526 0C162.861 0 161.511 1.34963 161.511 3.01449C161.511 4.67934 162.861 6.02898 164.526 6.02898Z" fill="#D0CDE1"/>
<path d="M197.182 42.2028C198.847 42.2028 200.197 40.8532 200.197 39.1883C200.197 37.5235 198.847 36.1738 197.182 36.1738C195.518 36.1738 194.168 37.5235 194.168 39.1883C194.168 40.8532 195.518 42.2028 197.182 42.2028Z" fill="#D0CDE1"/>
<path d="M190.149 81.391C191.814 81.391 193.163 80.0414 193.163 78.3765C193.163 76.7117 191.814 75.3621 190.149 75.3621C188.484 75.3621 187.134 76.7117 187.134 78.3765C187.134 80.0414 188.484 81.391 190.149 81.391Z" fill="#D0CDE1"/>
<path d="M282.091 33.6617C284.31 33.6617 286.11 31.8622 286.11 29.6424C286.11 27.4226 284.31 25.623 282.091 25.623C279.871 25.623 278.071 27.4226 278.071 29.6424C278.071 31.8622 279.871 33.6617 282.091 33.6617Z" fill="#D0CDE1"/>
<path d="M313.442 123.013C315.107 123.013 316.456 121.663 316.456 119.998C316.456 118.333 315.107 116.984 313.442 116.984C311.777 116.984 310.427 118.333 310.427 119.998C310.427 121.663 311.777 123.013 313.442 123.013Z" fill="#D0CDE1"/>
<path d="M386.593 176.85C388.257 176.85 389.607 175.5 389.607 173.836C389.607 172.171 388.257 170.821 386.593 170.821C384.928 170.821 383.578 172.171 383.578 173.836C383.578 175.5 384.928 176.85 386.593 176.85Z" fill="#D0CDE1"/>
<path d="M79.1151 175.343C80.7799 175.343 82.1296 173.993 82.1296 172.328C82.1296 170.663 80.7799 169.314 79.1151 169.314C77.4502 169.314 76.1006 170.663 76.1006 172.328C76.1006 173.993 77.4502 175.343 79.1151 175.343Z" fill="#D0CDE1"/>
<path d="M33.8978 233.12C35.5626 233.12 36.9123 231.771 36.9123 230.106C36.9123 228.441 35.5626 227.091 33.8978 227.091C32.2329 227.091 30.8833 228.441 30.8833 230.106C30.8833 231.771 32.2329 233.12 33.8978 233.12Z" fill="#D0CDE1"/>
<path d="M147.443 193.43C151.883 193.43 155.482 189.831 155.482 185.391C155.482 180.951 151.883 177.352 147.443 177.352C143.004 177.352 139.405 180.951 139.405 185.391C139.405 189.831 143.004 193.43 147.443 193.43Z" fill="#D0CDE1"/>
<path d="M384.834 282.357L389.356 277.835L391.868 280.347L387.849 286.879L384.834 282.357Z" fill="#FFB8B8"/>
<path d="M386.844 277.835L389.859 275.825C389.859 275.825 397.395 265.777 400.409 270.801C403.424 275.825 394.883 280.85 394.883 280.85L392.371 283.864L386.844 277.835Z" fill="#FF6584"/>
<path opacity="0.15" d="M386.844 277.835L389.859 275.825C389.859 275.825 397.395 265.777 400.409 270.801C403.424 275.825 394.883 280.85 394.883 280.85L392.371 283.864L386.844 277.835Z" fill="black"/>
<path d="M359.713 287.381H375.791L385.337 280.85L390.863 288.386L377.801 298.434L364.235 300.946L359.713 287.381Z" fill="#6C63FF"/>
<path opacity="0.15" d="M359.713 287.381H375.791L385.337 280.85L390.863 288.386L377.801 298.434L364.235 300.946L359.713 287.381Z" fill="black"/>
<path d="M366.245 315.768C366.245 315.768 380.815 331.845 378.303 335.864C375.791 339.883 370.264 339.883 369.259 339.381C368.255 338.879 353.685 330.84 353.685 330.84L355.694 324.309C355.694 324.309 352.68 317.275 355.694 316.772C358.709 316.27 366.245 315.768 366.245 315.768Z" fill="#2F2E41"/>
<path d="M356.699 324.309C356.699 324.309 347.153 316.772 345.144 318.28C343.134 319.787 336.602 329.333 337.607 333.854C338.612 338.376 337.607 339.883 340.622 339.381C343.636 338.879 344.139 333.854 344.139 333.854L354.689 329.835L356.699 324.309Z" fill="#2F2E41"/>
<path opacity="0.15" d="M359.849 325.604L359.579 326.028L370.632 333.062L370.902 332.638L359.849 325.604Z" fill="black"/>
<path d="M359.713 275.574C363.876 275.574 367.25 272.2 367.25 268.038C367.25 263.876 363.876 260.502 359.713 260.502C355.551 260.502 352.177 263.876 352.177 268.038C352.177 272.2 355.551 275.574 359.713 275.574Z" fill="#FFB8B8"/>
<path d="M350.67 276.579C350.67 276.579 348.661 281.603 348.661 293.661C348.661 305.719 341.627 311.246 347.153 317.275C352.68 323.304 374.465 319.476 374.465 319.476C374.465 319.476 374.23 319.662 374.284 319.284C374.786 315.767 369.26 279.091 367.25 278.589C365.24 278.086 350.67 276.579 350.67 276.579Z" fill="#6C63FF"/>
<path d="M384.834 274.067L389.356 269.545L391.868 272.057L387.849 278.589L384.834 274.067Z" fill="#FFB8B8"/>
<path d="M345.363 267.445C343.699 267.688 341.862 267.874 340.684 268.382C339.138 269.049 339.228 270.049 339.648 270.922C340.068 271.795 340.724 272.704 340.024 273.551C339.616 274.043 338.783 274.465 338.133 274.918C337.483 275.371 337.004 275.904 337.388 276.399C337.79 276.916 339.019 277.265 339.883 277.693C341.749 278.618 341.776 280.014 339.945 280.948C341.521 280 344.528 279.577 347.286 279.173C350.044 278.77 353.008 278.233 354.164 277.202C355.344 276.15 354.247 274.925 354.859 273.806C355.382 272.849 357.092 272.06 358.457 271.231C359.823 270.402 360.898 269.381 360 268.465C359.337 267.789 357.641 267.199 357.963 266.488C358.163 266.049 359.097 265.721 359.767 265.354C360.438 264.988 360.812 264.439 359.967 264.129C356.899 264.682 353.775 265.206 350.749 265.791C348.883 266.153 347.778 267.445 345.363 267.445Z" fill="#2F2E41"/>
<path d="M359.713 279.091H375.791L385.337 272.56L390.863 280.096L377.801 290.144L364.235 292.656L359.713 279.091Z" fill="#6C63FF"/>
<path d="M400.356 276.328C400.356 276.328 414.423 269.294 414.423 266.782C414.423 264.27 408.897 256.734 398.848 256.734C398.848 256.734 396.336 252.212 393.322 255.729C390.307 259.246 394.829 261.758 394.829 261.758C394.829 261.758 389.303 270.801 397.341 276.328H400.356Z" fill="#6C63FF"/>
<path d="M277.066 193.932C281.506 193.932 285.105 190.333 285.105 185.893C285.105 181.454 281.506 177.855 277.066 177.855C272.627 177.855 269.028 181.454 269.028 185.893C269.028 190.333 272.627 193.932 277.066 193.932Z" fill="#FF6584"/>
<path d="M271.751 186.008L269.45 182.936L269.853 182.634L271.831 185.277L275.308 182.297L278.812 185.3L281.839 182.273L285.031 185.465L284.676 185.82L281.839 182.983L278.838 185.984L275.308 182.958L271.751 186.008Z" fill="#575A89"/>
<path d="M271.253 189.98L268.974 186.935L269.324 186.673L271.323 189.343L274.805 186.359L278.311 189.363L281.337 186.337L284.506 189.506L284.196 189.816L281.337 186.956L278.334 189.96L274.805 186.935L271.253 189.98Z" fill="#575A89"/>
<path d="M277.066 172.077H276.564V178.106H277.066V172.077Z" fill="#575A89"/>
<path d="M261.994 128.116C266.434 128.116 270.033 124.517 270.033 120.077C270.033 115.637 266.434 112.038 261.994 112.038C257.555 112.038 253.956 115.637 253.956 120.077C253.956 124.517 257.555 128.116 261.994 128.116Z" fill="#FF6584"/>
<path d="M256.678 120.192L254.377 117.119L254.78 116.818L256.759 119.461L260.235 116.481L263.739 119.484L266.767 116.456L269.959 119.648L269.604 120.003L266.767 117.167L263.765 120.168L260.235 117.142L256.678 120.192Z" fill="#575A89"/>
<path d="M256.181 124.163L253.901 121.119L254.252 120.856L256.251 123.527L259.733 120.542L263.239 123.547L266.264 120.521L269.434 123.691L269.124 124L266.264 121.14L263.262 124.144L259.733 121.119L256.181 124.163Z" fill="#575A89"/>
<path d="M261.994 106.261H261.492V112.29H261.994V106.261Z" fill="#575A89"/>
<path d="M200.197 196.444C204.636 196.444 208.235 192.845 208.235 188.405C208.235 183.966 204.636 180.367 200.197 180.367C195.757 180.367 192.158 183.966 192.158 188.405C192.158 192.845 195.757 196.444 200.197 196.444Z" fill="#FF6584"/>
<path d="M194.882 188.52L192.581 185.447L192.983 185.146L194.962 187.788L198.439 184.809L201.942 187.812L204.97 184.784L208.162 187.977L207.807 188.332L204.97 185.495L201.969 188.496L198.439 185.47L194.882 188.52Z" fill="#575A89"/>
<path d="M194.384 192.492L192.104 189.447L192.455 189.185L194.454 191.855L197.936 188.871L201.442 191.876L204.468 188.849L207.637 192.019L207.327 192.328L204.468 189.469L201.465 192.471L197.936 189.447L194.384 192.492Z" fill="#575A89"/>
<path d="M200.197 174.589H199.695V180.618H200.197V174.589Z" fill="#575A89"/>
<path d="M246.664 40.7865L239.818 35.6492L232.817 40.5728L235.587 32.4742L228.741 27.3365L237.299 27.4687L240.069 19.3701L242.589 27.5506L251.147 27.6828L244.145 32.6064L246.664 40.7865Z" fill="#6C63FF"/>
<path d="M331.375 321.556C331.48 319.328 330.876 317.125 329.65 315.262C328.423 313.4 326.638 311.974 324.55 311.19C322.463 310.406 320.18 310.305 318.031 310.9C315.882 311.495 313.977 312.756 312.59 314.503C311.469 312.793 309.876 311.445 308.005 310.622C308.608 308.338 308.427 305.918 307.491 303.748C306.555 301.579 304.917 299.787 302.841 298.659C300.765 297.532 298.371 297.133 296.042 297.528C293.712 297.923 291.583 299.089 289.995 300.838C287.504 298.369 284.514 296.462 281.226 295.244C281.632 292.678 281.076 290.052 279.665 287.87C278.253 285.689 276.086 284.105 273.579 283.423C271.072 282.741 268.402 283.008 266.079 284.174C263.757 285.339 261.947 287.321 260.997 289.739C259.137 288.446 256.91 287.786 254.646 287.858C252.381 287.93 250.2 288.729 248.426 290.138C246.652 291.547 245.38 293.49 244.797 295.679C244.214 297.869 244.353 300.187 245.192 302.292C243.948 302.75 242.802 303.438 241.813 304.321C239.4 303.432 236.745 303.456 234.348 304.388C231.951 305.32 229.978 307.097 228.799 309.383C227.844 308.323 226.684 307.468 225.39 306.869C225.421 306.611 225.453 306.353 225.466 306.089C225.535 304.618 225.296 303.148 224.763 301.775C224.23 300.402 223.415 299.155 222.371 298.116C221.328 297.076 220.078 296.267 218.702 295.74C217.327 295.213 215.856 294.98 214.385 295.055C212.914 295.131 211.475 295.513 210.161 296.179C208.847 296.844 207.687 297.777 206.755 298.918C205.823 300.059 205.141 301.382 204.751 302.803C204.362 304.224 204.274 305.71 204.494 307.166C202.105 307.817 200.024 309.296 198.624 311.339C197.224 313.381 196.595 315.855 196.85 318.318C185.01 318.666 173.591 319.22 162.679 319.97C161.335 315.266 158.621 311.069 154.882 307.915C151.143 304.76 146.549 302.79 141.686 302.258C136.823 301.725 131.911 302.653 127.578 304.923C123.244 307.194 119.685 310.704 117.355 315.005C115.528 313.622 113.3 312.872 111.008 312.868C108.717 312.865 106.486 313.607 104.655 314.984C102.823 316.361 101.489 318.297 100.856 320.5C100.223 322.702 100.324 325.05 101.144 327.19C100.667 327.276 100.191 327.362 99.7174 327.449C99.7342 327.274 99.7601 327.102 99.7683 326.924C99.8342 325.539 99.6263 324.155 99.1567 322.85C98.6871 321.545 97.9649 320.346 97.0314 319.321C96.098 318.295 94.9716 317.464 93.7166 316.874C92.4616 316.285 91.1028 315.948 89.7176 315.884C88.3325 315.82 86.9483 316.029 85.6442 316.501C84.3401 316.972 83.1417 317.695 82.1175 318.63C81.0932 319.565 80.2633 320.692 79.6751 321.948C79.0869 323.204 78.752 324.563 78.6895 325.948C78.6845 326.057 78.6926 326.164 78.6909 326.273C77.7264 325.907 76.6889 325.774 75.6634 325.887C74.6379 325.999 73.6536 326.353 72.7914 326.92C71.9292 327.486 71.2135 328.249 70.7032 329.145C70.1928 330.042 69.9023 331.047 69.8555 332.077C69.8171 332.905 331.356 321.966 331.375 321.556Z" fill="#D0CDE1"/>
<path d="M75.312 365.637C75.7091 365.657 76.1048 365.697 76.4977 365.758H73.1768C73.8822 365.641 74.598 365.601 75.312 365.637Z" fill="#D0CDE1"/>
<path d="M123.262 365.758H82.396C84.6467 362.405 87.6878 359.657 91.2513 357.757C94.8147 355.857 98.7909 354.864 102.829 354.864C106.867 354.864 110.844 355.857 114.407 357.757C117.971 359.657 121.012 362.405 123.262 365.758Z" fill="#D0CDE1"/>
<path d="M40.8664 365.758H0C2.25066 362.405 5.29183 359.657 8.85527 357.757C12.4187 355.857 16.3949 354.864 20.4332 354.864C24.4714 354.864 28.4477 355.857 32.0111 357.757C35.5745 359.657 38.6157 362.405 40.8664 365.758Z" fill="#D0CDE1"/>
<path d="M64.9821 365.758H24.1157C26.3664 362.405 29.4076 359.657 32.971 357.757C36.5344 355.857 40.5107 354.864 44.5489 354.864C48.5872 354.864 52.5634 355.857 56.1268 357.757C59.6903 359.657 62.7314 362.405 64.9821 365.758Z" fill="#D0CDE1"/>
<path d="M178.528 342.647H137.662C139.912 339.294 142.953 336.546 146.517 334.646C150.08 332.746 154.057 331.753 158.095 331.753C162.133 331.753 166.109 332.746 169.673 334.646C173.236 336.546 176.277 339.294 178.528 342.647Z" fill="#D0CDE1"/>
<path d="M342.315 354.202H301.449C303.699 350.849 306.741 348.102 310.304 346.202C313.867 344.302 317.844 343.308 321.882 343.308C325.92 343.308 329.896 344.302 333.46 346.202C337.023 348.102 340.064 350.849 342.315 354.202Z" fill="#D0CDE1"/>
<path d="M271.831 363.376C273.108 363.941 274.262 364.75 275.228 365.758H161.536C162.172 364.348 163.108 363.095 164.28 362.087C165.452 361.078 166.83 360.339 168.319 359.92C168.215 359.24 168.18 358.552 168.213 357.865C168.277 356.48 168.613 355.122 169.201 353.867C169.79 352.613 170.62 351.486 171.644 350.553C172.668 349.619 173.866 348.896 175.17 348.426C176.474 347.955 177.857 347.746 179.242 347.811C180.626 347.875 181.984 348.211 183.238 348.801C184.493 349.39 185.619 350.221 186.552 351.246C187.485 352.27 188.207 353.469 188.677 354.773C189.146 356.077 189.355 357.46 189.289 358.845C189.279 359.106 189.249 359.362 189.214 359.623C190.51 360.221 191.671 361.075 192.626 362.135C193.805 359.851 195.778 358.075 198.175 357.144C200.571 356.212 203.225 356.188 205.638 357.076C206.627 356.192 207.774 355.504 209.019 355.046C208.462 353.658 208.21 352.165 208.281 350.67C208.366 348.787 208.954 346.962 209.984 345.383C211.014 343.805 212.449 342.532 214.138 341.697C215.828 340.861 217.711 340.494 219.59 340.634C221.47 340.774 223.278 341.415 224.825 342.491C225.74 340.166 227.451 338.242 229.652 337.061C231.854 335.88 234.403 335.519 236.846 336.042C239.289 336.564 241.467 337.938 242.992 339.917C244.517 341.895 245.29 344.351 245.173 346.847C245.153 347.232 245.113 347.616 245.052 347.997C248.34 349.216 251.329 351.122 253.82 353.589C255.407 351.836 257.537 350.668 259.868 350.271C262.199 349.874 264.596 350.272 266.673 351.401C268.751 352.53 270.389 354.324 271.325 356.496C272.26 358.668 272.438 361.091 271.831 363.376Z" fill="#D0CDE1"/>
<path d="M384.387 365.758H364.994C365.807 363.859 367.159 362.241 368.882 361.104C370.606 359.967 372.626 359.36 374.691 359.36C376.756 359.36 378.775 359.967 380.499 361.104C382.223 362.241 383.575 363.859 384.387 365.758Z" fill="#D0CDE1"/>
<path d="M465.899 365.758H404.67C404.314 364.616 404.163 363.42 404.223 362.226C404.307 360.343 404.896 358.517 405.926 356.939C406.956 355.36 408.391 354.087 410.08 353.252C411.77 352.417 413.653 352.05 415.532 352.189C417.412 352.329 419.22 352.97 420.767 354.046C421.682 351.722 423.393 349.797 425.594 348.616C427.796 347.435 430.345 347.074 432.788 347.597C435.231 348.12 437.409 349.493 438.934 351.472C440.459 353.451 441.232 355.907 441.115 358.402C441.095 358.788 441.055 359.172 440.994 359.553C444.282 360.771 447.271 362.678 449.761 365.145C450.796 364.006 452.067 363.107 453.485 362.511C454.904 361.915 456.435 361.636 457.973 361.694C459.51 361.753 461.017 362.147 462.386 362.849C463.755 363.551 464.954 364.543 465.899 365.758Z" fill="#D0CDE1"/>
<path d="M291.466 365.758H277.88C279.779 364.151 282.186 363.27 284.673 363.27C287.16 363.27 289.567 364.151 291.466 365.758Z" fill="#D0CDE1"/>
<path d="M112.11 220.033C117.054 220.033 121.061 216.025 121.061 211.081C121.061 206.137 117.054 202.13 112.11 202.13C107.166 202.13 103.158 206.137 103.158 211.081C103.158 216.025 107.166 220.033 112.11 220.033Z" fill="#A0616A"/>
<path d="M114.216 199.667C117.405 199.867 120.364 201.346 123.13 202.947C122.9 202.831 122.639 202.795 122.386 202.845C122.134 202.895 121.905 203.027 121.737 203.222C121.368 203.58 121.136 204.057 120.781 204.429C120.121 205.119 119.13 205.358 118.198 205.566L113.852 206.533L109.821 207.429C108.82 207.72 107.772 207.816 106.735 207.713C105.709 207.544 104.693 206.882 104.425 205.878C104.053 204.482 106.828 202.405 107.845 201.564C109.66 200.164 111.931 199.487 114.216 199.667Z" fill="#2F2E41"/>
<path d="M106.028 206.991C107.906 204.353 110.839 202.638 113.78 201.158C113.286 201.354 113.16 201.995 113.293 202.516C113.425 203.037 113.741 203.508 113.894 204.025C114.178 204.985 113.871 205.975 113.566 206.897L112.145 211.193L110.827 215.179C110.563 216.204 110.093 217.164 109.447 218.002C109.101 218.421 108.643 218.732 108.127 218.901C107.611 219.07 107.058 219.089 106.532 218.955C105.051 218.486 104.617 214.916 104.385 213.562C104.052 211.242 104.642 208.883 106.028 206.991Z" fill="#2F2E41"/>
<path d="M151.075 204.236C151.075 204.236 151.602 192.651 154.235 193.178C156.867 193.705 154.761 205.289 154.761 205.289L151.075 204.236Z" fill="#A0616A"/>
<path d="M150.55 224.246L138.719 232.814L135.278 235.304L126.328 222.665L131.914 220.463L143.704 215.819L150.55 202.128L156.339 203.708C157.395 206.341 150.55 224.246 150.55 224.246Z" fill="#575A89"/>
<path d="M132.119 201.603C132.119 201.603 130.539 187.912 133.699 188.965C136.858 190.019 136.332 203.183 136.332 203.183L132.119 201.603Z" fill="#A0616A"/>
<path d="M108.138 324.333L105.099 332.279L113.563 334.783L113.402 324.253L108.138 324.333Z" fill="#575A89"/>
<path d="M133.107 269.709L124.687 304.595L116.602 326.837L106.071 326.998L115.64 298.414L119.369 266.76L133.107 269.709Z" fill="#2F2E41"/>
<path d="M103.919 331.413C103.919 331.413 100.714 338.237 102.875 339.171C105.037 340.105 110.908 341.36 110.908 341.36L111.714 340.682C111.714 340.682 125.279 343.723 127.55 339.061C129.822 334.399 119.16 332.357 119.16 332.357L114.288 328.198L108.435 331.056L103.919 331.413Z" fill="#2F2E41"/>
<path d="M97.0565 322.923L94.0186 330.869L102.483 333.373L102.322 322.843L97.0565 322.923Z" fill="#575A89"/>
<path d="M107.692 267.725L104.584 298.583L94.9668 324.008L103.966 327.03L117.771 299.961L124.14 268.793L107.692 267.725Z" fill="#2F2E41"/>
<path d="M92.2693 330.296C92.2693 330.296 87.2452 335.918 89.0492 337.431C90.8531 338.945 96.1198 341.827 96.1198 341.827L97.086 341.408C97.086 341.408 109.214 348.203 112.724 344.386C116.235 340.569 106.603 335.561 106.603 335.561L103.124 330.182L96.6983 331.246L92.2693 330.296Z" fill="#2F2E41"/>
<path opacity="0.15" d="M138.719 232.814L135.278 235.304L126.328 222.665L128.818 222.222C128.956 222.45 131.114 222.393 131.256 222.629C133.868 226.907 137.634 230.523 138.719 232.814Z" fill="black"/>
<path d="M144.256 275.038C143.647 274.644 143.505 270.523 142.631 270.163C142.188 269.98 141.103 273.546 140.6 273.372C127.545 268.855 98.3598 278.538 93.4721 267.725C90.1859 260.455 111.056 246.359 111.056 241.094C110.987 239.753 110.744 238.427 110.332 237.149C109.337 233.663 107.485 229.275 105.989 225.964C104.71 223.128 103.686 221.085 103.686 221.085C103.686 221.085 119.039 216.522 123.959 214.759C124.585 214.536 125.04 214.357 125.275 214.239C126.218 213.768 128.639 217.099 131.122 221.158C134.177 226.159 137.329 232.27 137.91 233.724C138.963 236.357 153.207 280.832 144.256 275.038Z" fill="#575A89"/>
<path opacity="0.15" d="M129.224 220.191C123.524 227.053 117.389 235.256 112.108 236.808C111.529 236.982 110.934 237.097 110.332 237.149C109.337 233.663 107.484 229.275 105.989 225.964C106.598 225.296 107.327 224.749 108.138 224.351L122.419 217.323L123.959 214.759C124.584 214.536 125.039 214.357 125.275 214.239C126.218 213.768 126.742 216.132 129.224 220.191Z" fill="black"/>
<path d="M108.138 222.32C104.238 224.24 102.817 229.23 105.344 232.768C106.655 234.604 108.753 235.764 112.11 234.776C121.061 232.144 137.911 213.187 137.911 207.395V202.13L131.592 200.023L122.419 215.29L108.138 222.32Z" fill="#575A89"/>
<path d="M131.794 224.764C132.159 224.503 132.032 223.7 131.511 222.969C130.99 222.239 130.271 221.858 129.906 222.118C129.54 222.379 129.667 223.183 130.188 223.913C130.71 224.644 131.428 225.025 131.794 224.764Z" fill="#2F2E41"/>
<path d="M134.231 229.233C134.596 228.972 134.47 228.169 133.948 227.438C133.427 226.707 132.708 226.327 132.343 226.587C131.978 226.848 132.104 227.652 132.626 228.382C133.147 229.113 133.866 229.494 134.231 229.233Z" fill="#2F2E41"/>
<path d="M136.262 234.108C136.628 233.848 136.501 233.044 135.98 232.314C135.458 231.583 134.74 231.202 134.374 231.463C134.009 231.723 134.136 232.527 134.657 233.258C135.178 233.988 135.897 234.369 136.262 234.108Z" fill="#2F2E41"/>
<path d="M137.063 239.199C137.487 239.053 137.596 238.247 137.306 237.398C137.016 236.549 136.436 235.978 136.012 236.123C135.587 236.268 135.478 237.074 135.768 237.924C136.058 238.773 136.638 239.344 137.063 239.199Z" fill="#2F2E41"/>
<path d="M138.688 244.074C139.113 243.929 139.222 243.123 138.931 242.273C138.641 241.424 138.062 240.853 137.637 240.998C137.212 241.143 137.103 241.949 137.394 242.799C137.684 243.648 138.263 244.219 138.688 244.074Z" fill="#2F2E41"/>
<path d="M140.313 248.543C140.738 248.398 140.847 247.592 140.556 246.742C140.266 245.893 139.687 245.322 139.262 245.467C138.837 245.612 138.728 246.418 139.019 247.268C139.309 248.117 139.888 248.688 140.313 248.543Z" fill="#2F2E41"/>
<path d="M141.126 253.418C141.55 253.273 141.659 252.467 141.369 251.618C141.079 250.768 140.499 250.197 140.075 250.342C139.65 250.488 139.541 251.294 139.831 252.143C140.121 252.992 140.701 253.563 141.126 253.418Z" fill="#2F2E41"/>
<path d="M141.938 258.294C142.363 258.148 142.472 257.342 142.181 256.493C141.891 255.644 141.312 255.073 140.887 255.218C140.462 255.363 140.353 256.169 140.644 257.018C140.934 257.868 141.513 258.439 141.938 258.294Z" fill="#2F2E41"/>
<path d="M142.751 263.575C143.175 263.43 143.284 262.624 142.994 261.774C142.704 260.925 142.124 260.354 141.7 260.499C141.275 260.645 141.166 261.451 141.456 262.3C141.746 263.149 142.326 263.72 142.751 263.575Z" fill="#2F2E41"/>
<path d="M143.157 268.857C143.581 268.711 143.69 267.905 143.4 267.056C143.11 266.207 142.53 265.636 142.106 265.781C141.681 265.926 141.572 266.732 141.862 267.581C142.153 268.431 142.732 269.002 143.157 268.857Z" fill="#2F2E41"/>
<path d="M107.409 216.486C107.409 216.486 119.436 202.465 118.292 199.745C117.149 197.026 107.733 191.383 96.8545 195.958C96.8545 195.958 92.0757 192.207 90.4135 197.387C88.7512 202.567 94.7907 203.228 94.7907 203.228C94.7907 203.228 92.9253 215.536 104.145 217.859L107.409 216.486Z" fill="#6C63FF"/>
<path d="M302.187 335.613C306.627 335.613 310.226 332.014 310.226 327.574C310.226 323.135 306.627 319.536 302.187 319.536C297.747 319.536 294.148 323.135 294.148 327.574C294.148 332.014 297.747 335.613 302.187 335.613Z" fill="#FF6584"/>
<path d="M296.871 327.689L294.571 324.616L294.973 324.315L296.952 326.957L300.429 323.978L303.932 326.981L306.96 323.953L310.152 327.145L309.797 327.501L306.96 324.664L303.959 327.665L300.429 324.639L296.871 327.689Z" fill="#575A89"/>
<path d="M296.374 331.661L294.095 328.616L294.445 328.353L296.444 331.024L299.926 328.04L303.432 331.044L306.458 328.018L309.627 331.188L309.317 331.497L306.458 328.638L303.455 331.64L299.926 328.616L296.374 331.661Z" fill="#575A89"/>
<path d="M302.187 313.758H301.685V319.787H302.187V313.758Z" fill="#575A89"/>
<path d="M275.298 335.33C279.738 335.33 283.337 331.731 283.337 327.291C283.337 322.852 279.738 319.253 275.298 319.253C270.859 319.253 267.26 322.852 267.26 327.291C267.26 331.731 270.859 335.33 275.298 335.33Z" fill="#6C63FF"/>
<path d="M270.553 329.688L267.151 327.909L267.384 327.464L270.31 328.994L272.16 324.806L276.617 326.003L278.042 321.965L282.299 323.467L282.132 323.941L278.348 322.606L276.936 326.609L272.446 325.402L270.553 329.688Z" fill="#575A89"/>
<path d="M271.617 333.059L268.453 331.709L268.625 331.307L271.421 332.5L273.467 328.702L277.735 329.498L279.352 325.869L283.359 326.932L283.247 327.355L279.6 326.388L277.994 329.991L273.701 329.191L271.617 333.059Z" fill="#575A89"/>
<path d="M269.337 314.828L268.884 315.044L271.485 320.483L271.938 320.267L269.337 314.828Z" fill="#575A89"/>
<path d="M203.087 330.803C207.527 330.803 211.126 327.204 211.126 322.764C211.126 318.325 207.527 314.726 203.087 314.726C198.648 314.726 195.049 318.325 195.049 322.764C195.049 327.204 198.648 330.803 203.087 330.803Z" fill="#6C63FF"/>
<path d="M198.037 321.103L196.89 317.44L197.369 317.29L198.356 320.44L202.626 318.787L204.93 322.785L208.793 320.938L210.741 325.01L210.288 325.227L208.556 321.608L204.728 323.439L202.406 319.411L198.037 321.103Z" fill="#575A89"/>
<path d="M208.505 328.837L206.76 325.188L202.929 327.02L200.608 322.995L196.245 324.683L195.109 321.053L195.527 320.922L196.524 324.106L200.8 322.451L203.106 326.451L206.967 324.604L208.9 328.648L208.505 328.837Z" fill="#575A89"/>
<path d="M207.211 309.568L205.205 315.253L205.679 315.421L207.685 309.735L207.211 309.568Z" fill="#575A89"/>
<path d="M373.16 307.408C373.568 307.344 373.722 306.18 373.505 304.81C373.288 303.44 372.782 302.381 372.374 302.446C371.966 302.511 371.812 303.674 372.029 305.044C372.246 306.414 372.753 307.473 373.16 307.408Z" fill="#575A89"/>
<path d="M372.155 300.375C372.563 300.31 372.718 299.147 372.5 297.776C372.283 296.406 371.777 295.348 371.369 295.412C370.961 295.477 370.807 296.64 371.024 298.01C371.241 299.381 371.748 300.439 372.155 300.375Z" fill="#575A89"/>
<path d="M374.165 313.94C374.573 313.875 374.727 312.712 374.51 311.342C374.293 309.971 373.787 308.913 373.379 308.978C372.971 309.042 372.817 310.205 373.034 311.576C373.251 312.946 373.757 314.004 374.165 313.94Z" fill="#575A89"/>
<path d="M374.508 319.989C374.919 319.95 375.148 318.799 375.019 317.418C374.889 316.037 374.452 314.948 374.041 314.987C373.63 315.025 373.401 316.176 373.53 317.557C373.659 318.939 374.097 320.027 374.508 319.989Z" fill="#575A89"/>
<path d="M385.856 278.325C386.837 277.344 387.395 276.312 387.104 276.021C386.812 275.729 385.78 276.287 384.799 277.268C383.818 278.249 383.259 279.281 383.551 279.573C383.843 279.865 384.875 279.306 385.856 278.325Z" fill="#575A89"/>
<path d="M366.9 265.006C365.838 264.885 364.931 265.714 364.186 266.48C363.561 267.16 362.88 267.786 362.15 268.351C361.056 269.135 359.79 269.642 358.458 269.832C357.127 270.021 355.769 269.887 354.5 269.439C354.563 269.462 356.931 266.327 357.192 266.038C358.18 264.946 359.241 263.922 360.366 262.971C361.209 262.26 362.368 261.041 363.573 261.569C364.842 262.125 365.999 263.985 366.9 265.006Z" fill="#2F2E41"/>
<path d="M352.177 271.555C352.177 271.555 366.245 264.521 366.245 262.009C366.245 259.497 360.718 251.961 350.67 251.961C350.67 251.961 348.158 247.439 345.144 250.956C342.129 254.473 346.651 256.985 346.651 256.985C346.651 256.985 341.124 266.028 349.163 271.555H352.177Z" fill="#575A89"/>
<path d="M369.621 264.485C368.559 264.365 367.651 265.193 366.906 265.96C366.281 266.64 365.601 267.265 364.871 267.831C363.777 268.614 362.511 269.122 361.179 269.311C359.847 269.501 358.49 269.366 357.221 268.919C357.284 268.942 359.651 265.806 359.912 265.518C360.901 264.426 361.961 263.401 363.087 262.451C363.929 261.739 365.088 260.521 366.294 261.049C367.563 261.605 368.719 263.464 369.621 264.485Z" fill="#575A89"/>
<path d="M400.409 262.511C398.81 259.845 395.936 261.424 393.592 263.493C393.478 262.205 393.087 261.255 392.622 261.255C392.067 261.255 391.617 262.605 391.617 264.27C391.617 264.638 391.64 265.006 391.687 265.371C390.59 266.561 389.859 267.536 389.859 267.536L386.844 269.545L392.371 275.574L394.883 272.56C394.883 272.56 403.424 267.536 400.409 262.511Z" fill="#FF6584"/>
<path d="M344.39 251.709C345.5 251.709 346.4 250.81 346.4 249.7C346.4 248.59 345.5 247.69 344.39 247.69C343.28 247.69 342.38 248.59 342.38 249.7C342.38 250.81 343.28 251.709 344.39 251.709Z" fill="#575A89"/>
<path d="M356.077 305.028V308.311C356.077 309.531 356.561 310.7 357.423 311.562C358.285 312.424 359.454 312.908 360.674 312.908C361.893 312.908 363.062 312.424 363.924 311.562C364.786 310.7 365.271 309.531 365.271 308.311V305.028H356.077Z" fill="#6C63FF"/>
<path opacity="0.15" d="M356.077 305.028V308.311C356.077 309.531 356.561 310.7 357.423 311.562C358.285 312.424 359.454 312.908 360.674 312.908C361.893 312.908 363.062 312.424 363.924 311.562C364.786 310.7 365.271 309.531 365.271 308.311V305.028H356.077Z" fill="black"/>
</svg>
