<svg width="395" height="292" viewBox="0 0 395 292" fill="none" xmlns="http://www.w3.org/2000/svg">
<g opacity="0.1">
<path opacity="0.1" d="M315.791 206.761C315.791 206.761 287.636 203.105 308.634 248.673C308.634 248.673 327.769 240.473 328.531 221.978C328.686 218.379 327.515 214.848 325.241 212.054C322.966 209.26 319.746 207.397 316.19 206.819L315.791 206.761Z" fill="#6C63FF"/>
<path opacity="0.1" d="M316.204 206.693C316.204 206.693 322.578 232.101 308.655 248.677" stroke="#535461" stroke-miterlimit="10"/>
<path opacity="0.1" d="M308.274 251.024C308.274 251.024 318.412 226.04 337.342 216.773C345.313 212.936 351.823 206.617 355.895 198.763C357.797 195.022 359.353 191.115 360.543 187.091" stroke="#535461" stroke-width="2" stroke-miterlimit="10"/>
<path opacity="0.1" d="M372.437 181.184C370.464 183.665 360.251 187.296 360.251 187.296C360.251 187.296 361.48 176.511 363.454 174.049C363.904 173.406 364.481 172.862 365.149 172.451C365.818 172.039 366.563 171.769 367.34 171.656C368.116 171.543 368.908 171.591 369.665 171.796C370.423 172 371.131 172.358 371.745 172.846C372.359 173.335 372.867 173.944 373.237 174.636C373.607 175.328 373.832 176.088 373.897 176.87C373.962 177.652 373.867 178.44 373.616 179.183C373.366 179.927 372.966 180.612 372.441 181.195L372.437 181.184Z" fill="#6C63FF"/>
<path opacity="0.1" d="M368.933 200.83C365.928 201.84 355.388 199.327 355.388 199.327C355.388 199.327 362.272 190.959 365.277 189.949C366.005 189.65 366.786 189.504 367.573 189.52C368.359 189.536 369.134 189.713 369.85 190.04C370.565 190.367 371.206 190.837 371.732 191.422C372.259 192.007 372.66 192.693 372.91 193.439C373.161 194.185 373.256 194.974 373.189 195.758C373.123 196.542 372.896 197.303 372.523 197.996C372.15 198.689 371.639 199.298 371.022 199.785C370.404 200.273 369.693 200.628 368.933 200.83Z" fill="#6C63FF"/>
<path opacity="0.1" d="M349.93 224.056C346.828 223.412 338.995 215.921 338.995 215.921C338.995 215.921 349.161 212.172 352.267 212.815C353.672 213.207 354.877 214.118 355.635 215.364C356.394 216.61 356.651 218.098 356.354 219.526C356.057 220.955 355.228 222.217 354.036 223.057C352.843 223.898 351.376 224.253 349.93 224.052V224.056Z" fill="#6C63FF"/>
<path opacity="0.1" d="M331.597 238.392C328.43 238.281 319.443 232.223 319.443 232.223C319.443 232.223 328.833 226.802 332 226.917C333.452 227.065 334.793 227.759 335.753 228.859C336.712 229.959 337.217 231.383 337.166 232.841C337.115 234.3 336.511 235.684 335.477 236.714C334.443 237.744 333.056 238.343 331.597 238.388V238.392Z" fill="#6C63FF"/>
<path opacity="0.1" d="M345.574 192.292C345.98 195.438 352.843 203.821 352.843 203.821C352.843 203.821 357.361 193.971 356.959 190.826C356.909 190.04 356.699 189.273 356.342 188.572C355.984 187.871 355.486 187.251 354.879 186.75C354.272 186.249 353.569 185.878 352.813 185.66C352.057 185.442 351.264 185.381 350.484 185.482C349.703 185.582 348.951 185.842 348.275 186.245C347.599 186.647 347.013 187.185 346.553 187.823C346.093 188.461 345.768 189.187 345.6 189.956C345.432 190.725 345.423 191.52 345.574 192.292Z" fill="#6C63FF"/>
<path opacity="0.1" d="M324.343 209.346C325.669 212.222 334.728 218.171 334.728 218.171C334.728 218.171 336.094 207.419 334.768 204.543C334.485 203.809 334.055 203.141 333.504 202.58C332.953 202.019 332.292 201.577 331.563 201.281C330.835 200.985 330.053 200.842 329.267 200.86C328.48 200.878 327.706 201.058 326.992 201.387C326.278 201.716 325.639 202.189 325.114 202.775C324.59 203.361 324.191 204.048 323.943 204.794C323.694 205.541 323.602 206.33 323.67 207.114C323.739 207.897 323.968 208.658 324.343 209.35V209.346Z" fill="#6C63FF"/>
<path opacity="0.1" d="M305.981 228.736C306.801 231.799 314.727 239.19 314.727 239.19C314.727 239.19 317.891 228.826 317.067 225.763C316.914 224.991 316.604 224.258 316.156 223.611C315.709 222.963 315.133 222.414 314.464 221.998C313.795 221.582 313.049 221.308 312.27 221.192C311.491 221.077 310.696 221.122 309.936 221.326C309.175 221.53 308.465 221.888 307.848 222.378C307.231 222.868 306.722 223.479 306.351 224.174C305.98 224.868 305.756 225.632 305.693 226.417C305.629 227.201 305.727 227.991 305.981 228.736Z" fill="#6C63FF"/>
<path opacity="0.25" d="M372.437 181.184C370.464 183.665 360.251 187.296 360.251 187.296C360.251 187.296 361.48 176.511 363.454 174.049C363.904 173.406 364.481 172.862 365.149 172.451C365.818 172.039 366.563 171.769 367.34 171.656C368.116 171.543 368.908 171.591 369.665 171.796C370.423 172 371.131 172.358 371.745 172.846C372.359 173.335 372.867 173.944 373.237 174.636C373.607 175.328 373.832 176.088 373.897 176.87C373.962 177.652 373.867 178.44 373.616 179.183C373.366 179.927 372.966 180.612 372.441 181.195L372.437 181.184Z" fill="black"/>
<path opacity="0.25" d="M368.933 200.83C365.928 201.84 355.388 199.327 355.388 199.327C355.388 199.327 362.272 190.959 365.277 189.949C366.005 189.65 366.786 189.504 367.573 189.52C368.359 189.536 369.134 189.713 369.85 190.04C370.565 190.367 371.206 190.837 371.732 191.422C372.259 192.007 372.66 192.693 372.91 193.439C373.161 194.185 373.256 194.974 373.189 195.758C373.123 196.542 372.896 197.303 372.523 197.996C372.15 198.689 371.639 199.298 371.022 199.785C370.404 200.273 369.693 200.628 368.933 200.83Z" fill="black"/>
<path opacity="0.25" d="M349.93 224.056C346.828 223.412 338.995 215.921 338.995 215.921C338.995 215.921 349.161 212.172 352.267 212.815C353.672 213.207 354.877 214.118 355.635 215.364C356.394 216.61 356.651 218.098 356.354 219.526C356.057 220.955 355.228 222.217 354.036 223.057C352.843 223.898 351.376 224.253 349.93 224.052V224.056Z" fill="black"/>
<path opacity="0.25" d="M331.597 238.392C328.43 238.281 319.443 232.223 319.443 232.223C319.443 232.223 328.833 226.802 332 226.917C333.452 227.065 334.793 227.759 335.753 228.859C336.712 229.959 337.217 231.383 337.166 232.841C337.115 234.3 336.511 235.684 335.477 236.714C334.443 237.744 333.056 238.343 331.597 238.388V238.392Z" fill="black"/>
<path opacity="0.25" d="M345.574 192.292C345.98 195.438 352.843 203.821 352.843 203.821C352.843 203.821 357.361 193.971 356.959 190.826C356.909 190.04 356.699 189.273 356.342 188.572C355.984 187.871 355.486 187.251 354.879 186.75C354.272 186.249 353.569 185.878 352.813 185.66C352.057 185.442 351.264 185.381 350.484 185.482C349.703 185.582 348.951 185.842 348.275 186.245C347.599 186.647 347.013 187.185 346.553 187.823C346.093 188.461 345.768 189.187 345.6 189.956C345.432 190.725 345.423 191.52 345.574 192.292Z" fill="black"/>
<path opacity="0.25" d="M324.343 209.346C325.669 212.222 334.728 218.171 334.728 218.171C334.728 218.171 336.094 207.419 334.768 204.543C334.485 203.809 334.055 203.141 333.504 202.58C332.953 202.019 332.292 201.577 331.563 201.281C330.835 200.985 330.053 200.842 329.267 200.86C328.48 200.878 327.706 201.058 326.992 201.387C326.278 201.716 325.639 202.189 325.114 202.775C324.59 203.361 324.191 204.048 323.943 204.794C323.694 205.541 323.602 206.33 323.67 207.114C323.739 207.897 323.968 208.658 324.343 209.35V209.346Z" fill="black"/>
<path opacity="0.25" d="M305.981 228.736C306.801 231.799 314.727 239.19 314.727 239.19C314.727 239.19 317.891 228.826 317.067 225.763C316.914 224.991 316.604 224.258 316.156 223.611C315.709 222.963 315.133 222.414 314.464 221.998C313.795 221.582 313.049 221.308 312.27 221.192C311.491 221.077 310.696 221.122 309.936 221.326C309.175 221.53 308.465 221.888 307.848 222.378C307.231 222.868 306.722 223.479 306.351 224.174C305.98 224.868 305.756 225.632 305.693 226.417C305.629 227.201 305.727 227.991 305.981 228.736Z" fill="black"/>
<path opacity="0.1" d="M321.776 262.391C321.776 262.391 331.914 237.407 350.844 228.14C358.811 224.3 365.318 217.979 369.386 210.126C371.288 206.386 372.844 202.478 374.034 198.454" stroke="#535461" stroke-width="2" stroke-miterlimit="10"/>
<path opacity="0.1" d="M385.922 192.544C383.948 195.024 373.735 198.655 373.735 198.655C373.735 198.655 374.965 187.871 376.938 185.408C377.918 184.319 379.276 183.645 380.736 183.523C382.196 183.402 383.647 183.842 384.794 184.753C385.941 185.665 386.696 186.98 386.906 188.43C387.117 189.88 386.766 191.355 385.925 192.555L385.922 192.544Z" fill="#6C63FF"/>
<path opacity="0.1" d="M382.424 212.189C379.419 213.199 368.879 210.687 368.879 210.687C368.879 210.687 375.763 202.318 378.768 201.308C380.18 200.933 381.682 201.11 382.969 201.802C384.255 202.495 385.23 203.651 385.695 205.035C386.16 206.42 386.081 207.93 385.474 209.259C384.866 210.588 383.776 211.635 382.424 212.189Z" fill="#6C63FF"/>
<path opacity="0.1" d="M363.422 235.43C360.319 234.786 352.486 227.295 352.486 227.295C352.486 227.295 362.652 223.545 365.758 224.189C367.164 224.581 368.368 225.492 369.127 226.738C369.885 227.984 370.142 229.472 369.845 230.9C369.548 232.329 368.72 233.591 367.527 234.431C366.334 235.272 364.867 235.627 363.422 235.426V235.43Z" fill="#6C63FF"/>
<path opacity="0.1" d="M345.085 249.748C341.918 249.636 332.931 243.579 332.931 243.579C332.931 243.579 342.32 238.165 345.487 238.277C346.939 238.424 348.281 239.119 349.24 240.219C350.199 241.319 350.704 242.742 350.653 244.201C350.602 245.659 349.998 247.044 348.964 248.074C347.93 249.104 346.543 249.702 345.085 249.748Z" fill="#6C63FF"/>
<path opacity="0.1" d="M359.061 203.666C359.468 206.812 366.33 215.195 366.33 215.195C366.33 215.195 370.849 205.345 370.446 202.2C370.397 201.414 370.187 200.647 369.829 199.946C369.471 199.245 368.974 198.625 368.367 198.124C367.76 197.624 367.056 197.253 366.3 197.034C365.544 196.816 364.751 196.755 363.971 196.856C363.19 196.957 362.439 197.216 361.763 197.619C361.087 198.022 360.5 198.559 360.04 199.197C359.58 199.835 359.256 200.561 359.087 201.33C358.919 202.099 358.91 202.894 359.061 203.666Z" fill="#6C63FF"/>
<path opacity="0.1" d="M337.834 220.691C339.161 223.567 348.22 229.517 348.22 229.517C348.22 229.517 349.586 218.765 348.259 215.889C347.563 214.604 346.404 213.632 345.018 213.171C343.631 212.709 342.121 212.793 340.794 213.405C339.467 214.017 338.422 215.111 337.873 216.465C337.323 217.819 337.309 219.331 337.834 220.695V220.691Z" fill="#6C63FF"/>
<path opacity="0.1" d="M319.472 240.103C320.292 243.166 328.218 250.557 328.218 250.557C328.218 250.557 331.382 240.193 330.558 237.13C330.088 235.749 329.11 234.598 327.822 233.911C326.534 233.223 325.034 233.051 323.624 233.429C322.215 233.807 321.001 234.707 320.23 235.946C319.459 237.185 319.188 238.671 319.472 240.103Z" fill="#6C63FF"/>
</g>
<path opacity="0.1" d="M4.2627 154.572C10.5033 181.246 23.7141 204.303 44.5927 215.479C87.9818 238.705 185.836 226.727 258.867 212.962C295.768 206.033 329.263 186.888 353.961 158.609L4.2627 154.572Z" fill="#6C63FF"/>
<path opacity="0.1" d="M387.234 29.0206H347.163C346.244 29.0206 345.363 28.6557 344.714 28.0062C344.064 27.3566 343.699 26.4757 343.699 25.5571C343.699 24.6385 344.064 23.7575 344.714 23.1079C345.363 22.4584 346.244 22.0935 347.163 22.0935H354.09C353.171 22.0935 352.29 21.7286 351.641 21.079C350.991 20.4295 350.626 19.5485 350.626 18.6299C350.626 17.7113 350.991 16.8303 351.641 16.1808C352.29 15.5312 353.171 15.1663 354.09 15.1663H349.143C348.225 15.1663 347.344 14.8014 346.694 14.1519C346.045 13.5023 345.68 12.6213 345.68 11.7027C345.68 10.7841 346.045 9.90315 346.694 9.25361C347.344 8.60406 348.225 8.23915 349.143 8.23915H370.058C365.417 6.08227 359.992 4.54729 353.745 3.74206C296.717 -3.58413 276.356 1.26165 269.174 6.25842C260.312 12.4055 250.427 16.9278 239.862 19.1062C204.672 26.3569 138.87 35.0922 79.2284 16.3023C49.5858 6.9558 27.5533 22.7441 14.3496 49.1155H394.19C393.694 41.4514 392.209 34.3769 389.484 28.1795C388.859 28.7209 388.061 29.0195 387.234 29.0206Z" fill="#6C63FF"/>
<path opacity="0.1" d="M0.861602 98.8996C-0.676784 114.413 -0.153385 130.062 2.41815 145.438L354.233 158.304C364.027 147.038 372.25 134.498 378.678 121.026L0.861602 98.8996ZM140.009 132.097H133.082C134 132.097 134.881 132.462 135.531 133.112C136.18 133.762 136.545 134.642 136.545 135.561C136.545 136.48 136.18 137.361 135.531 138.01C134.881 138.66 134 139.025 133.082 139.025H93.0105C92.0919 139.025 91.2109 138.66 90.5614 138.01C89.9118 137.361 89.5469 136.48 89.5469 135.561C89.5469 134.642 89.9118 133.762 90.5614 133.112C91.2109 132.462 92.0919 132.097 93.0105 132.097H99.9377C99.0191 132.097 98.1381 131.733 97.4885 131.083C96.839 130.433 96.4741 129.553 96.4741 128.634C96.4741 127.715 96.839 126.834 97.4885 126.185C98.1381 125.535 99.0191 125.17 99.9377 125.17H94.9912C94.0726 125.17 93.1917 124.805 92.5421 124.156C91.8926 123.506 91.5277 122.625 91.5277 121.707C91.5277 120.788 91.8926 119.907 92.5421 119.258C93.1917 118.608 94.0726 118.243 94.9912 118.243H135.062C135.981 118.243 136.862 118.608 137.512 119.258C138.161 119.907 138.526 120.788 138.526 121.707C138.526 122.625 138.161 123.506 137.512 124.156C136.862 124.805 135.981 125.17 135.062 125.17H140.009C140.927 125.17 141.808 125.535 142.458 126.185C143.107 126.834 143.472 127.715 143.472 128.634C143.472 129.553 143.107 130.433 142.458 131.083C141.808 131.733 140.927 132.097 140.009 132.097Z" fill="#6C63FF"/>
<path opacity="0.1" d="M394.207 49.3564L10.1072 58.7029C5.4376 70.7131 2.35686 84.2906 0.918945 98.3642H387.478C390.002 90.0971 391.868 81.6434 393.06 73.0821C394.211 64.8105 394.671 56.8084 394.207 49.3564ZM78.8972 79.9733H71.97C72.8886 79.9733 73.7696 80.3382 74.4191 80.9878C75.0687 81.6373 75.4336 82.5183 75.4336 83.4369C75.4336 84.3555 75.0687 85.2365 74.4191 85.886C73.7696 86.5355 72.8886 86.9005 71.97 86.9005H31.8989C30.9803 86.9005 30.0993 86.5355 29.4497 85.886C28.8002 85.2365 28.4353 84.3555 28.4353 83.4369C28.4353 82.5183 28.8002 81.6373 29.4497 80.9878C30.0993 80.3382 30.9803 79.9733 31.8989 79.9733H38.826C37.9074 79.9733 37.0265 79.6084 36.3769 78.9588C35.7274 78.3093 35.3624 77.4283 35.3624 76.5097C35.3624 75.5911 35.7274 74.7101 36.3769 74.0606C37.0265 73.411 37.9074 73.0461 38.826 73.0461H33.8796C32.961 73.0461 32.08 72.6812 31.4305 72.0317C30.7809 71.3821 30.416 70.5011 30.416 69.5825C30.416 68.6639 30.7809 67.783 31.4305 67.1334C32.08 66.4839 32.961 66.119 33.8796 66.119H73.9507C74.8693 66.119 75.7503 66.4839 76.3999 67.1334C77.0494 67.783 77.4143 68.6639 77.4143 69.5825C77.4143 70.5011 77.0494 71.3821 76.3999 72.0317C75.7503 72.6812 74.8693 73.0461 73.9507 73.0461H78.8972C79.8158 73.0461 80.6968 73.411 81.3463 74.0606C81.9958 74.7101 82.3608 75.5911 82.3608 76.5097C82.3608 77.4283 81.9958 78.3093 81.3463 78.9588C80.6968 79.6084 79.8158 79.9733 78.8972 79.9733Z" fill="#6C63FF"/>
<path d="M337.439 291.652C337.439 291.652 321.42 203.796 290.875 189.539C264.993 177.45 237.004 169.3 229.045 167.089C227.856 165.175 226.483 163.382 224.943 161.737C214.065 150.381 207.53 150.593 206.473 150.733C205.972 148.481 205.611 146.2 205.395 143.903C205.362 143.543 205.33 143.209 205.301 142.853L205.395 142.807C205.33 142.127 205.273 141.426 205.222 140.704C209.663 138.334 213.751 135.356 217.369 131.857C217.416 132.011 217.455 132.166 217.506 132.324C225.345 125.698 233.022 118.892 240.537 111.906C242.694 109.889 244.959 107.7 245.692 104.856C245.927 103.878 246.018 102.87 245.962 101.865C246.059 99.7085 245.549 97.5049 245.462 95.3193C245.462 94.9598 245.502 94.6255 245.549 94.284C246.052 90.7072 248.539 87.7702 250.581 84.7686C255.683 77.1831 258.345 68.2205 258.213 59.0802C258.269 54.7005 257.663 50.3376 256.416 46.1389C254.823 40.8115 251.509 35.2144 245.991 34.0497C243.855 33.6003 241.637 33.8807 239.459 33.7405C230.44 33.1653 223.689 25.832 216.495 20.4577C207.716 13.9304 197.334 9.90072 186.45 8.79623C183.053 8.43675 179.545 8.41159 176.313 9.49003C169.055 11.9057 164.648 19.3649 157.656 22.4313C152.487 24.7104 146.512 24.3401 141.12 26.0512C133.093 28.6035 126.281 36.8356 126.101 45.2942C126.101 45.6069 126.101 45.9197 126.101 46.2324C126.101 46.2863 126.101 46.3402 126.101 46.3906C126.011 50.6648 127.539 55.0181 127.661 59.3929C127.661 59.7884 127.667 60.185 127.679 60.5828C127.639 65.3064 127.075 70.0443 125.353 74.4839C124.426 76.8744 123.232 79.6424 123.426 82.0329C123.318 83.496 123.602 84.8692 124.62 85.9872L126.356 84.4558C125.774 87.6075 125.481 90.8058 125.483 94.0108C125.483 110.166 132.83 124.631 144.42 134.366C144.487 135.442 144.552 136.595 144.614 137.824C144.887 143.152 145.103 149.834 145.042 157.117L128.089 172.701L84.5055 192.472C84.5055 192.472 44.6464 200.891 53.2308 256.887L57.3288 291.656H93.7189L93.6362 291.839H147.648L147.68 291.656H276.187L276.162 291.839H281.195V291.656L337.439 291.652ZM206.793 151.625C207.895 153.903 208.762 156.288 209.381 158.742C208.109 156.381 207.17 153.855 206.588 151.236L206.642 151.333L206.793 151.625ZM145.027 158.814C145.027 159.5 145.015 160.191 144.991 160.888L144.905 161.011C144.899 160.271 144.94 159.531 145.027 158.796V158.814Z" fill="url(#paint0_linear)"/>
<path d="M221.01 167.632L213.821 236.293L175.356 248.515C175.356 248.515 125.389 239.168 138.33 212.208C147.536 193.029 147.281 158.757 146.368 140.567C146.008 133.183 145.52 128.449 145.52 128.449C145.52 128.449 210.945 71.2917 205.553 122.697C204.51 132.651 204.449 140.434 205.028 146.516C207.454 171.838 221.01 167.632 221.01 167.632Z" fill="#FDC2CC"/>
<path opacity="0.03" d="M221.01 167.632L213.821 236.293L175.356 248.515C175.356 248.515 125.389 239.168 138.33 212.208C147.536 193.029 147.281 158.757 146.368 140.567C146.008 133.183 145.52 128.449 145.52 128.449C145.52 128.449 210.945 71.2917 205.553 122.697C204.51 132.651 204.449 140.434 205.028 146.516C207.454 171.838 221.01 167.632 221.01 167.632Z" fill="black"/>
<path opacity="0.1" d="M205.553 121.619C204.51 131.573 204.449 139.355 205.028 145.438C195.791 150.48 185.246 152.611 174.776 151.549C164.307 150.487 154.404 146.283 146.368 139.488C146.008 132.105 145.52 127.37 145.52 127.37C145.52 127.37 210.945 70.2132 205.553 121.619Z" fill="black"/>
<path d="M180.03 149.662C208.817 149.662 232.154 126.325 232.154 97.5372C232.154 68.7496 208.817 45.4127 180.03 45.4127C151.242 45.4127 127.905 68.7496 127.905 97.5372C127.905 126.325 151.242 149.662 180.03 149.662Z" fill="#FDC2CC"/>
<path opacity="0.03" d="M180.03 149.662C208.817 149.662 232.154 126.325 232.154 97.5372C232.154 68.7496 208.817 45.4127 180.03 45.4127C151.242 45.4127 127.905 68.7496 127.905 97.5372C127.905 126.325 151.242 149.662 180.03 149.662Z" fill="black"/>
<path opacity="0.1" d="M94.1143 237.012C94.1143 237.012 111.01 271.522 111.908 291.832L94.1143 237.012Z" fill="black"/>
<path opacity="0.1" d="M278.167 256.786L273.314 291.836H278.167V256.786Z" fill="black"/>
<path opacity="0.1" d="M97.8887 291.832L124.67 230.901C124.67 230.901 132.219 216.522 134.016 202.142C135.814 187.763 145.52 165.116 145.52 165.116C145.52 165.116 169.605 134.56 180.749 138.874C191.892 143.188 171.043 159.364 171.043 159.364C171.043 159.364 201.598 171.227 180.749 206.456C159.899 241.685 159.539 235.214 159.539 235.214L149.294 291.832H97.8887Z" fill="black"/>
<path d="M97.1699 291.832L123.951 230.9C123.951 230.9 131.5 216.521 133.298 202.142C134.441 193.001 138.78 180.516 141.788 172.632C143.752 167.479 146.642 162.727 150.315 158.613C158.102 149.899 172.244 135.847 180.03 138.867C191.174 143.18 170.324 159.357 170.324 159.357C170.324 159.357 200.88 171.22 180.03 206.449C159.18 241.678 158.821 235.207 158.821 235.207L148.575 291.825L97.1699 291.832Z" fill="#FDC2CC"/>
<path opacity="0.15" d="M196.027 69.3181C196.622 69.3181 197.105 68.8352 197.105 68.2396C197.105 67.644 196.622 67.1612 196.027 67.1612C195.431 67.1612 194.948 67.644 194.948 68.2396C194.948 68.8352 195.431 69.3181 196.027 69.3181Z" fill="white"/>
<path opacity="0.15" d="M190.993 71.4749C191.589 71.4749 192.072 70.9921 192.072 70.3965C192.072 69.8009 191.589 69.3181 190.993 69.3181C190.398 69.3181 189.915 69.8009 189.915 70.3965C189.915 70.9921 190.398 71.4749 190.993 71.4749Z" fill="white"/>
<path opacity="0.1" d="M143 31.8496C148.202 30.1672 153.975 30.5303 158.964 28.2944C165.712 25.2675 169.964 17.9414 176.967 15.5688C180.087 14.5119 183.474 14.5515 186.749 14.8894C197.279 15.9854 207.308 19.9479 215.744 26.346C222.686 31.6267 229.199 38.8271 237.902 39.3915C240.005 39.5281 242.144 39.2513 244.204 39.6934C249.539 40.8366 252.735 46.333 254.27 51.5563C256.045 57.7464 256.462 64.2473 255.49 70.6134C254.518 76.9795 252.182 83.0603 248.64 88.4388C246.67 91.3866 244.269 94.2732 243.784 97.7853C243.309 101.229 244.776 104.799 243.92 108.171C243.201 110.964 241.044 113.113 238.945 115.094C231.695 121.951 224.287 128.631 216.718 135.135C212.786 122.64 218.555 109.184 217.657 96.1173C217.297 91.0271 215.5 85.4695 211.01 83.0682C206.807 80.8251 201.437 81.9898 197.184 79.8329C192.439 77.4424 190.491 71.7806 186.903 67.8622C180.792 61.1759 170.184 60.3132 161.639 63.3328C153.094 66.3524 146.109 72.5642 139.351 78.6215L127.068 89.6395C124.67 86.9362 126.489 82.7878 127.787 79.4087C129.721 74.3437 130.145 68.8832 130.016 63.5054C129.911 59.1916 128.423 54.9318 128.509 50.7331C128.682 42.4507 135.253 34.3552 143 31.8496Z" fill="black"/>
<path d="M143 30.7712C148.202 29.0888 153.975 29.4519 158.964 27.2159C165.712 24.1891 169.964 16.8629 176.967 14.4904C180.087 13.4335 183.474 13.473 186.749 13.811C197.279 14.9069 207.308 18.8695 215.744 25.2676C222.686 30.5483 229.199 37.7487 237.902 38.3131C240.005 38.4497 242.144 38.1729 244.204 38.615C249.539 39.7582 252.735 45.2546 254.27 50.4778C256.045 56.668 256.462 63.1689 255.49 69.535C254.518 75.9011 252.182 81.9818 248.64 87.3604C246.67 90.3081 244.269 93.1948 243.784 96.7069C243.309 100.151 244.776 103.72 243.92 107.092C243.201 109.885 241.044 112.035 238.945 114.016C231.695 120.872 224.287 127.553 216.718 134.057C212.786 121.561 218.555 108.106 217.657 95.0389C217.297 89.9487 215.5 84.3911 211.01 81.9898C206.807 79.7466 201.437 80.9113 197.184 78.7545C192.439 76.3639 190.491 70.7021 186.903 66.7838C180.792 60.0975 170.184 59.2347 161.639 62.2544C153.094 65.274 146.109 71.4858 139.351 77.543L127.068 88.5611C124.67 85.8578 126.489 81.7094 127.787 78.3303C129.721 73.2652 130.145 67.8047 130.016 62.4269C129.911 58.1132 128.423 53.8533 128.509 49.6546C128.682 41.3722 135.253 33.2767 143 30.7712Z" fill="#865A61"/>
<defs>
<linearGradient id="paint0_linear" x1="194.725" y1="291.832" x2="194.725" y2="8.55538" gradientUnits="userSpaceOnUse">
<stop stop-color="#808080" stop-opacity="0.25"/>
<stop offset="0.54" stop-color="#808080" stop-opacity="0.12"/>
<stop offset="1" stop-color="#808080" stop-opacity="0.1"/>
</linearGradient>
</defs>
</svg>
