<svg width="572" height="352" viewBox="0 0 572 352" fill="none" xmlns="http://www.w3.org/2000/svg">
<path d="M268.17 349.522L267.45 348.774C267.593 348.637 281.76 334.764 287.159 308.839C292.146 284.899 290.462 245.484 254.122 193.666C238.938 172.015 228.583 151.559 223.346 132.867C219.066 117.593 218.16 103.395 220.653 90.6657C225.581 65.4989 242.33 54.4503 242.499 54.3417L243.061 55.2146C242.896 55.3211 226.497 66.1622 221.665 90.8974C216.123 119.276 227.329 153.652 254.972 193.07C271.114 216.087 281.86 238.626 286.91 260.061C290.956 277.232 291.377 293.737 288.163 309.117C282.684 335.331 268.315 349.383 268.17 349.522Z" fill="#F2F2F2"/>
<path d="M233.301 112.306C255.505 112.306 273.505 94.3063 273.505 72.1022C273.505 49.8981 255.505 31.8981 233.301 31.8981C211.097 31.8981 193.097 49.8981 193.097 72.1022C193.097 94.3063 211.097 112.306 233.301 112.306Z" fill="#F2F2F2"/>
<path d="M242.78 109.557C231.945 109.557 221.355 106.344 212.346 100.325C203.338 94.3061 196.317 85.7509 192.171 75.7415C188.025 65.732 186.94 54.7179 189.054 44.0919C191.167 33.4659 196.384 23.7053 204.045 16.0444C211.706 8.38344 221.467 3.16627 232.093 1.0526C242.719 -1.06106 253.733 0.0237102 263.742 4.16974C273.752 8.31577 282.307 15.3369 288.326 24.3451C294.345 33.3534 297.558 43.9442 297.558 54.7784C297.542 69.3015 291.765 83.2251 281.496 93.4945C271.226 103.764 257.303 109.541 242.78 109.557ZM242.78 1.0387C232.151 1.03867 221.761 4.19044 212.923 10.0954C204.086 16.0004 197.198 24.3935 193.13 34.2131C189.063 44.0328 187.999 54.8381 190.072 65.2626C192.146 75.6871 197.264 85.2627 204.78 92.7783C212.295 100.294 221.871 105.412 232.295 107.486C242.72 109.559 253.525 108.495 263.345 104.428C273.165 100.36 281.558 93.4722 287.463 84.6347C293.368 75.7972 296.519 65.4072 296.519 54.7784C296.503 40.5307 290.836 26.8712 280.762 16.7965C270.687 6.72188 257.027 1.05485 242.78 1.0387Z" fill="#F2F2F2"/>
<path d="M273.505 196.637C291.918 196.637 306.845 181.71 306.845 163.297C306.845 144.884 291.918 129.957 273.505 129.957C255.092 129.957 240.165 144.884 240.165 163.297C240.165 181.71 255.092 196.637 273.505 196.637Z" fill="#F2F2F2"/>
<path d="M256.508 312.346C274.921 312.346 289.848 297.419 289.848 279.006C289.848 260.593 274.921 245.666 256.508 245.666C238.095 245.666 223.168 260.593 223.168 279.006C223.168 297.419 238.095 312.346 256.508 312.346Z" fill="#F2F2F2"/>
<path d="M396.473 59.2044H274.429V138.663H396.473V59.2044Z" fill="#6C63FF"/>
<path d="M559.316 349.514H446.287C446.287 349.514 443.996 315.91 457.552 315.529C471.107 315.147 469.58 330.421 486.573 309.419C503.565 288.417 524.185 289.562 526.858 301.973C529.531 314.383 521.703 324.311 536.023 321.256C550.342 318.201 570.962 326.22 559.316 349.514Z" fill="#F2F2F2"/>
<path d="M500.893 349.521L500.512 349.506C501.401 327.382 506.035 313.167 509.765 305.138C513.816 296.42 517.719 292.891 517.758 292.856L518.011 293.142C517.973 293.176 514.115 296.67 510.098 305.329C506.388 313.324 501.78 327.48 500.893 349.521Z" fill="white"/>
<path d="M541.801 349.567L541.435 349.46C544.277 340.084 549.401 331.559 556.348 324.649L556.604 324.932C549.709 331.793 544.623 340.258 541.801 349.567Z" fill="white"/>
<path d="M464.089 349.54L463.711 349.487C464.943 341.192 463.639 332.719 459.97 325.179C458.465 322.016 456.473 319.109 454.066 316.564L454.331 316.288C456.769 318.864 458.787 321.807 460.312 325.009C464.016 332.618 465.332 341.169 464.089 349.54Z" fill="white"/>
<path d="M44.4228 349.405L44.1621 348.869C44.0827 348.706 36.2744 332.384 40.6279 316.29C44.9817 300.196 59.954 290.036 60.1046 289.936L60.5993 289.605L60.86 290.14C60.9394 290.303 68.7477 306.626 64.394 322.719C60.0405 338.813 45.0682 348.973 44.9176 349.074L44.4228 349.405ZM60.1804 291.154C57.5591 293.061 45.4323 302.508 41.6306 316.561C37.8261 330.625 43.5388 344.888 44.8417 347.855C47.463 345.948 59.5898 336.501 63.3913 322.448C67.196 308.384 61.4833 294.121 60.1804 291.154Z" fill="#3F3D56"/>
<path d="M24.2912 322.584C28.6443 338.676 43.5549 348.642 43.5549 348.642C43.5549 348.642 51.4076 332.518 47.0545 316.426C42.7013 300.334 27.7907 290.368 27.7907 290.368C27.7907 290.368 19.938 306.492 24.2912 322.584Z" fill="#6C63FF"/>
<path d="M44.6579 349.18L44.0635 349.147C43.8825 349.137 25.8231 348.024 13.8763 336.395C1.93003 324.766 0.331697 306.742 0.316989 306.561L0.268555 305.969L0.862952 306.001C1.04401 306.011 19.1034 307.124 31.0499 318.753C42.9965 330.383 44.5948 348.406 44.6095 348.587L44.6579 349.18ZM1.41881 307.088C1.81059 310.305 4.16916 325.496 14.601 335.65C25.0329 345.806 40.2806 347.755 43.5077 348.06C43.1159 344.842 40.7573 329.653 30.3252 319.498C19.8857 309.335 4.64437 307.392 1.41881 307.088Z" fill="#3F3D56"/>
<path d="M57.496 319.125C45.5508 330.753 44.0918 348.629 44.0918 348.629C44.0918 348.629 61.9997 347.651 73.9449 336.023C85.8901 324.395 87.3491 306.519 87.3491 306.519C87.3491 306.519 69.4412 307.497 57.496 319.125Z" fill="#3F3D56"/>
<path d="M154.612 218.374C142.667 230.002 141.208 247.877 141.208 247.877C141.208 247.877 159.116 246.899 171.061 235.271C183.006 223.643 184.465 205.768 184.465 205.768C184.465 205.768 166.557 206.746 154.612 218.374Z" fill="#3F3D56"/>
<path d="M43.8428 287.713C48.1451 287.713 51.6328 284.225 51.6328 279.923C51.6328 275.62 48.1451 272.133 43.8428 272.133C39.5405 272.133 36.0527 275.62 36.0527 279.923C36.0527 284.225 39.5405 287.713 43.8428 287.713Z" fill="#6C63FF"/>
<path d="M138.353 349.003L137.633 348.254C137.746 348.146 148.983 337.138 153.263 316.571C157.216 297.575 155.873 266.298 127.031 225.171C104.91 193.628 95.9584 166.07 100.425 143.262C104.348 123.225 117.692 114.423 117.827 114.337L118.39 115.21C118.259 115.294 105.265 123.889 101.438 143.494C97.043 166.009 105.94 193.288 127.881 224.574C140.713 242.871 149.255 260.79 153.27 277.831C156.488 291.487 156.823 304.615 154.266 316.849C149.907 337.706 138.468 348.892 138.353 349.003Z" fill="#3F3D56"/>
<path d="M133.169 140.221C184.797 140.221 226.65 133.041 226.65 124.184C226.65 115.327 184.797 108.146 133.169 108.146C81.5412 108.146 39.6885 115.327 39.6885 124.184C39.6885 133.041 81.5412 140.221 133.169 140.221Z" fill="#6C63FF"/>
<path d="M115.771 135.547C50.9756 135.547 0.21875 126.65 0.21875 115.293C0.21875 103.935 50.9756 95.0386 115.771 95.0386C180.567 95.0386 231.324 103.935 231.324 115.293C231.324 126.65 180.567 135.547 115.771 135.547ZM115.771 96.0773C53.6983 96.0773 1.25742 104.877 1.25742 115.293C1.25742 125.709 53.6983 134.508 115.771 134.508C177.844 134.508 230.285 125.709 230.285 115.293C230.285 104.877 177.844 96.0773 115.771 96.0773Z" fill="#3F3D56"/>
<path d="M142.029 36.5843C142.029 36.5843 128.177 32.6822 124.079 51.6075C119.982 70.5329 123.104 80.0932 123.104 80.0932L154.028 76.4837C154.028 76.4837 162.808 42.3399 142.029 36.5843Z" fill="#2F2E41"/>
<path d="M121.304 118.554C121.304 118.554 100.985 120.578 104.604 128.782C108.223 136.985 108.223 137.709 108.223 137.709L126.077 169.557L131.868 163.525C131.868 163.525 125.354 149.29 125.354 144.706C125.354 140.122 118.598 132.159 118.598 132.159L130.42 131.194L121.304 118.554Z" fill="#A0616A"/>
<path d="M176.987 128.299L183.742 143.017C183.742 143.017 188.809 148.084 194.358 168.351C199.908 188.618 201.114 187.894 201.114 187.894L192.67 189.583C192.67 189.583 183.26 167.627 180.123 165.938C176.987 164.249 173.126 148.808 173.126 148.808L162.027 134.814L165.405 127.334L176.987 128.299Z" fill="#A0616A"/>
<path d="M168.783 111.409L179.158 130.712C179.158 130.712 166.129 124.68 164.199 137.95L152.376 128.781C152.376 128.781 135.97 134.09 126.077 132.159C126.077 132.159 128.973 122.991 118.598 118.889L142.002 115.994L141.036 110.927L143.449 106.101L168.783 111.409Z" fill="#2F2E41"/>
<path d="M127.525 165.214C127.525 165.214 121.011 164.249 122.7 170.04L126.077 181.621C126.077 181.621 121.734 193.443 128.49 190.789C135.246 188.135 139.589 171.728 139.589 171.728C139.589 171.728 142.484 159.182 139.589 159.182C136.694 159.182 127.525 157.252 128.49 159.182C129.455 161.112 127.525 165.214 127.525 165.214Z" fill="#2F2E41"/>
<path d="M200.391 184.516C200.391 184.516 191.946 182.345 190.016 185.723C188.086 189.1 188.568 200.199 188.568 200.44C188.568 200.682 191.464 203.094 192.429 203.094C193.394 203.094 199.426 213.952 207.629 210.091C215.833 206.231 200.391 184.516 200.391 184.516Z" fill="#2F2E41"/>
<path d="M139.589 66.0493C144.785 66.0493 148.998 61.8364 148.998 56.6395C148.998 51.4426 144.785 47.2297 139.589 47.2297C134.392 47.2297 130.179 51.4426 130.179 56.6395C130.179 61.8364 134.392 66.0493 139.589 66.0493Z" fill="#A0616A"/>
<path d="M147.309 58.5699C147.309 58.5699 149.239 68.7036 150.928 70.1512C152.617 71.5989 138.141 73.7704 138.141 73.7704C138.141 73.7704 140.312 66.7734 137.658 63.1542C135.004 59.5351 147.309 58.5699 147.309 58.5699Z" fill="#A0616A"/>
<path d="M172.643 115.993C171 115.993 166.817 115.313 162.126 114.437C158.068 113.68 153.626 112.78 150.123 112.051C146.371 111.269 143.69 110.685 143.69 110.685C143.69 110.685 142.725 116.717 139.588 115.993C136.886 115.371 128.811 87.1633 126.627 79.3677C126.467 78.7984 126.498 78.1927 126.715 77.6426C126.931 77.0924 127.321 76.6281 127.826 76.3203L138.918 69.5477L141.76 70.6334C141.76 70.6334 146.561 66.9226 149.348 66.8478C152.135 66.773 156.96 66.0491 156.96 66.0491C156.96 66.0491 162.51 66.5317 163.475 70.6334C164.44 74.7351 164.923 100.31 168.542 104.895C172.161 109.479 177.228 115.993 172.643 115.993Z" fill="#D0CDE1"/>
<path d="M138.865 129.505C138.865 129.505 138.865 138.915 145.138 137.467C151.412 136.019 145.621 127.333 145.621 127.333L138.865 129.505Z" fill="#A0616A"/>
<path d="M156.237 130.47C156.237 130.47 154.065 141.569 149.481 139.88C144.897 138.191 149.481 128.299 149.481 128.299L156.237 130.47Z" fill="#A0616A"/>
<path opacity="0.15" d="M166.371 104.171C166.371 104.171 164.009 109.807 162.127 114.437C158.068 113.68 153.626 112.78 150.123 112.051C150.375 111.385 150.728 110.761 151.17 110.203C152.859 108.273 151.894 107.79 151.894 107.79C150.446 104.895 151.653 101.034 151.653 101.034C148.757 93.3135 153.1 83.6624 153.1 83.6624L166.371 104.171Z" fill="black"/>
<path d="M153.824 83.6624C153.824 83.6624 149.481 93.3135 152.376 101.034C152.376 101.034 151.17 104.895 152.618 107.79C152.618 107.79 153.583 108.273 151.894 110.203C150.205 112.133 148.757 118.889 149.963 120.337C151.17 121.784 148.275 124.438 148.998 125.886C149.722 127.334 147.792 129.264 147.792 129.264C147.792 129.264 155.03 130.711 156.237 132.883C156.237 132.883 157.684 131.194 156.961 129.264C156.237 127.334 156.719 126.61 157.443 125.403C158.167 124.197 160.338 121.543 160.58 120.337C160.821 119.13 167.094 104.171 167.094 104.171L164.152 76.91L153.824 83.6624Z" fill="#D0CDE1"/>
<path d="M128.732 76.907L128.281 76.9889C127.652 77.1029 127.084 77.4351 126.677 77.9269C126.269 78.4187 126.048 79.0386 126.053 79.6773C126.07 82.0998 126.206 86.399 126.801 92.3487C127.767 102 131.144 116.476 131.868 117.924C133.018 120.486 134.307 122.983 135.729 125.404C137.9 129.023 138.383 127.816 137.9 129.505C137.753 129.971 137.744 130.468 137.872 130.939C138 131.409 138.261 131.833 138.624 132.159C138.624 132.159 142.967 127.334 147.31 129.988C147.62 129.306 147.785 128.566 147.793 127.816C147.793 126.61 148.516 125.404 147.31 124.68C146.104 123.956 148.034 120.819 146.104 119.13C144.173 117.442 143.932 117.683 144.173 115.994C144.286 114.846 144.121 113.687 143.691 112.616L128.732 76.907Z" fill="#D0CDE1"/>
<path d="M143.107 44.5519C143.107 44.5519 139.205 54.8926 129.645 59.1849L128.084 50.0149L143.107 44.5519Z" fill="#2F2E41"/>
<path d="M148.758 55.5536C149.491 55.5536 150.085 54.4193 150.085 53.0202C150.085 51.621 149.491 50.4868 148.758 50.4868C148.025 50.4868 147.431 51.621 147.431 53.0202C147.431 54.4193 148.025 55.5536 148.758 55.5536Z" fill="#A0616A"/>
<path d="M421.605 186.369C430.913 186.369 438.46 178.823 438.46 169.514C438.46 160.206 430.913 152.66 421.605 152.66C412.296 152.66 404.75 160.206 404.75 169.514C404.75 178.823 412.296 186.369 421.605 186.369Z" fill="#2F2E41"/>
<path d="M419.354 152.976C422.446 152.976 424.952 150.47 424.952 147.378C424.952 144.286 422.446 141.779 419.354 141.779C416.261 141.779 413.755 144.286 413.755 147.378C413.755 150.47 416.261 152.976 419.354 152.976Z" fill="#2F2E41"/>
<path d="M413.053 150.845C412.19 149.759 411.762 148.391 411.85 147.006C411.938 145.621 412.538 144.319 413.532 143.351C413.375 143.452 413.222 143.561 413.073 143.679C412.498 144.136 412.018 144.703 411.661 145.345C411.304 145.988 411.077 146.695 410.993 147.425C410.91 148.156 410.971 148.896 411.173 149.603C411.375 150.309 411.715 150.97 412.172 151.545C412.629 152.121 413.195 152.601 413.838 152.958C414.481 153.315 415.188 153.541 415.918 153.625C416.649 153.709 417.388 153.648 418.095 153.446C418.802 153.243 419.462 152.904 420.038 152.447C420.187 152.328 420.328 152.204 420.461 152.074C419.293 152.824 417.889 153.113 416.52 152.886C415.152 152.659 413.916 151.931 413.053 150.845Z" fill="#2F2E41"/>
<path d="M393.998 230.466L384.242 238.721C384.242 238.721 369.609 243.223 376.738 248.101C383.867 252.979 387.994 242.098 387.994 242.098L400.001 234.594L393.998 230.466Z" fill="#FFB9B9"/>
<path d="M415.009 194.447L413.884 193.696C413.884 193.696 409.381 193.696 408.631 198.199C407.88 202.701 405.629 212.081 405.629 212.081C405.629 212.081 398.125 216.584 398.875 224.838L390.996 231.592C390.996 231.592 400.376 234.594 398.5 237.22L412.383 224.463L412.758 200.075L415.009 194.447Z" fill="#2F2E41"/>
<path d="M419.511 185.817C424.899 185.817 429.267 181.45 429.267 176.062C429.267 170.674 424.899 166.307 419.511 166.307C414.123 166.307 409.756 170.674 409.756 176.062C409.756 181.45 414.123 185.817 419.511 185.817Z" fill="#FFB9B9"/>
<path d="M416.51 182.815C416.51 182.815 422.513 189.569 418.761 193.321C415.009 197.073 413.884 215.458 413.884 215.458L430.393 190.319C430.393 190.319 425.89 181.314 426.266 178.313L416.51 182.815Z" fill="#FFB9B9"/>
<path d="M415.384 209.08C415.384 209.08 424.389 189.302 429.267 187.935L442.024 191.07C442.024 191.07 431.893 225.964 433.019 229.341C434.145 232.718 440.523 237.595 438.272 267.237C438.272 267.237 467.163 320.14 460.034 329.145C452.905 338.15 426.265 344.904 425.89 342.278C425.515 339.651 413.508 299.129 415.384 286.747C415.384 286.747 415.384 340.402 413.133 341.527C410.882 342.653 374.862 350.907 375.988 344.529C377.113 338.15 395.123 267.987 395.123 267.987L409.006 224.463L409.381 218.085C409.381 218.085 403.378 213.957 407.88 204.577C412.383 195.197 413.883 193.696 413.883 193.696L419.289 192.682C419.289 192.682 414.259 206.453 415.384 209.08Z" fill="#2F2E41"/>
<path d="M435.646 237.22L431.143 246.975C431.143 246.975 419.512 259.357 427.766 259.732C436.021 260.107 436.771 248.476 436.771 248.476L442.775 237.22H435.646Z" fill="#FFB9B9"/>
<path d="M437.146 191.445H442.024C442.024 191.445 443.525 189.194 445.025 198.574C446.526 207.954 445.776 222.212 445.776 222.212L443.525 240.972C443.525 240.972 435.645 237.971 433.769 238.721C431.893 239.471 433.769 238.346 433.769 238.346L437.146 225.589L433.019 207.204L437.146 191.445Z" fill="#2F2E41"/>
<path d="M418.525 161.677C412.153 163.409 407.806 167.825 408.816 171.542C409.268 173.206 410.719 174.443 412.752 175.152L414.536 172.939L414.617 175.625C414.899 175.673 415.185 175.715 415.48 175.747L417.747 170.974L419.039 175.73C420.101 175.616 421.152 175.418 422.182 175.138C428.554 173.406 432.901 168.99 431.891 165.273C430.881 161.556 424.897 159.946 418.525 161.677Z" fill="#2F2E41"/>
<path d="M429.455 175.874C430.076 175.874 430.58 175.034 430.58 173.998C430.58 172.962 430.076 172.122 429.455 172.122C428.833 172.122 428.329 172.962 428.329 173.998C428.329 175.034 428.833 175.874 429.455 175.874Z" fill="#FFB9B9"/>
<path d="M391.28 349.514C396.156 349.514 400.109 347.77 400.109 345.619C400.109 343.468 396.156 341.724 391.28 341.724C386.404 341.724 382.451 343.468 382.451 345.619C382.451 347.77 386.404 349.514 391.28 349.514Z" fill="#2F2E41"/>
<path d="M439.202 347.659C445.285 345.261 449.363 341.155 448.311 338.486C447.259 335.818 441.476 335.598 435.393 337.996C429.311 340.393 425.233 344.5 426.284 347.168C427.336 349.837 433.12 350.056 439.202 347.659Z" fill="#2F2E41"/>
<path d="M379.581 243.188C379.426 243.15 364.024 239.23 358.163 223.659C351.483 205.911 359.337 180.883 381.506 149.271C408.584 110.659 410.055 97.6859 406.52 93.6014C402.049 88.4349 388.019 95.4307 387.878 95.502L387.41 94.5749C388.016 94.2686 402.305 87.1452 407.305 92.921C412.799 99.2682 404.405 118.427 382.356 149.867C370.343 166.997 362.491 182.374 359.018 195.568C356.202 206.266 356.24 215.588 359.129 223.277C364.788 238.336 379.677 242.143 379.827 242.179L379.581 243.188Z" fill="#3F3D56"/>
<path d="M388.163 126.199H257.81V41.0276H388.163V126.199ZM258.848 125.16H387.124V42.0663H258.848V125.16Z" fill="#3F3D56"/>
<path d="M312.098 94.91C315.119 94.91 317.568 92.4609 317.568 89.4399C317.568 86.4188 315.119 83.9698 312.098 83.9698C309.077 83.9698 306.628 86.4188 306.628 89.4399C306.628 92.4609 309.077 94.91 312.098 94.91Z" fill="#3F3D56"/>
<path d="M358.804 94.91C361.825 94.91 364.274 92.4609 364.274 89.4399C364.274 86.4188 361.825 83.9698 358.804 83.9698C355.783 83.9698 353.334 86.4188 353.334 89.4399C353.334 92.4609 355.783 94.91 358.804 94.91Z" fill="#3F3D56"/>
<path d="M358.804 111.741C358.804 113.367 348.254 118.052 335.24 118.052C322.226 118.052 311.677 113.367 311.677 111.741C311.677 110.114 322.226 112.161 335.24 112.161C348.254 112.161 358.804 110.114 358.804 111.741Z" fill="#3F3D56"/>
<path d="M571.271 348.761H0V349.8H571.271V348.761Z" fill="#3F3D56"/>
</svg>
